<svg xmlns="http://www.w3.org/2000/svg" width="500" height="615"><defs/><defs><linearGradient id="b" x1="50%" x2="50%" y1="0%" y2="100%"><stop offset="0%" stop-color="#FFDDF1"/><stop offset="42%" stop-color="#FBC8E5"/><stop offset="42%" stop-color="#DFA1C5"/><stop offset="100%" stop-color="#F08CC7"/></linearGradient><linearGradient id="a" x1="50%" x2="50%" y1="0%" y2="100%"><stop offset="0%" stop-color="#FDEAF5"/><stop offset="42%" stop-color="#FDEAF5"/><stop offset="42%" stop-color="#F5DEEC"/><stop offset="100%" stop-color="#FCE2F1"/></linearGradient></defs><g fill="none" fill-rule="evenodd"><path fill="url(#b)" fill-rule="nonzero" stroke="url(#a)" stroke-width="9" d="M388 101.5a80.2 80.2 0 0180.5 80.5h0v320.5c0 8-4.8 18.3-12.4 23.7a38 38 0 01-18.9 5.8c-7.8 0-16.7-5.2-25.4-10.8l-7.5-4.5c-18.6-10.6-27.8-16-34.3-19.8-4.2-2.6-7.2-4.3-11-6.4h0-248A80.2 80.2 0 0130.5 410h0V182a80.2 80.2 0 0180.5-80.5h0zm0 34H111a46.3 46.3 0 00-46.5 45.7V410a46.3 46.3 0 0045.7 46.5h257.3c43.7 25.2 47.6 27.5 67 38.4V452 182a46.3 46.3 0 00-45.7-46.5h-.8z"/><path fill="#FCA0D6" d="M258 67v39h-15V67c3.2 1 5.7 1.4 7.5 1.4 1.8 0 4.3-.5 7.5-1.4zm-8-67a30 30 0 110 60 30 30 0 010-60zm0 15a15 15 0 100 30 15 15 0 000-30z"/><path fill="#FCA0D6" fill-rule="nonzero" d="M29 207h6v149H24a21 21 0 01-21-21V228a21 21 0 0121-21h5zm0 15h-5a6 6 0 00-6 5.8V335a6 6 0 005.8 6H29a6 6 0 006-5.8V228a6 6 0 00-5.8-6H29zM470 207h-6v149h11a21 21 0 0021-21V228a21 21 0 00-21-21h-5zm0 15h5a6 6 0 016 5.8V335a6 6 0 01-5.8 6H470a6 6 0 01-6-5.8V228a6 6 0 015.8-6h.2z" opacity=".9"/><path fill="#666472" fill-rule="nonzero" d="M182.1 347.6c10.1-4.7 16.7-14 20.5-28.6 3-11.1 1.9-37.4-1.8-45.5a7.3 7.3 0 00-9-3.6c-3.9 1.5-5.1 5.6-3.9 13.2 1.6 9.5 1.4 27.5-.4 34.4-3.2 12.3-10.5 18.5-22 18.5-11.1-.1-17.6-5.1-20.6-16-1.8-6.4-1.5-23.9.6-34.8 1.6-8.4 1.6-9.4.1-11.6a7.1 7.1 0 00-12-.3c-3.9 5.8-6 36.8-3.5 48.9a38.8 38.8 0 0015.5 23.9c6.3 3.8 11.3 4.9 21.4 4.6 7.8-.3 10.5-.9 15.1-3.1zm169.1.1c9.2-4.5 15.2-12.5 18.3-24.4 3-11.5 1-43.8-3.1-50a7.2 7.2 0 00-12 .2c-1.4 2.2-1.4 3.3.2 12.2 2 11.5 2.2 27.9.5 34.3-3 10.9-9.5 15.9-20.6 16-11.5 0-18.8-6.2-22-18.5-1.8-6.9-2-24.9-.4-34.4 1.2-7.7.1-11.4-4-13.1a7 7 0 00-8.9 3.5c-3.7 8.1-4.8 34.4-1.8 45.5 4.6 17.4 13.4 27.6 27 31.1 1.7.4 7.2.7 12.2.6 7.5-.2 10-.7 14.6-3z"/><path fill="#989AA1" fill-rule="nonzero" d="M243 396.1c1.4-1 3.6-3.5 5-5.5 2.2-3.4 2.6-3.6 3.5-2 .5 1 2.6 3.6 4.6 5.6 3.3 3.5 4.1 3.8 9 3.8 6.3 0 10.9-2.4 14-7.2 1.7-2.8 2-4.5 1.6-11.3-.4-8.3-3.6-17.8-6.3-18.9-1.9-.7-4.7 2.3-3.8 4.3 6.7 15.3 5.5 25-3.1 26.7-6.9 1.3-10.7-3.6-12.8-16.6-1.1-7-1.4-7.5-3.7-7.5-2.7 0-3.1.8-5 10.7-1.9 9.8-7.1 15-13.4 13.4-7-1.7-8.6-9.2-4.1-20.1 3-7.1 3.1-9.1.8-10-2.3-.8-4.6 2-7.3 9.3-2.7 7.1-3 15.6-.7 19.9 4 7.5 14.9 10.2 21.7 5.4z"/><path fill="#DFA1C5" d="M152 379c.6 0 1 .4 1 1v10a1 1 0 11-2 0v-10c0-.6.4-1 1-1zm5.5 0c.6 0 1 .4 1 1v10a1 1 0 11-2 0v-10c0-.6.4-1 1-1zm5.5 0c.6 0 1 .4 1 1v10a1 1 0 11-2 0v-10c0-.6.4-1 1-1zM338 379c.6 0 1 .4 1 1v10a1 1 0 11-2 0v-10c0-.6.4-1 1-1zm5.5 0c.6 0 1 .4 1 1v10a1 1 0 11-2 0v-10c0-.6.4-1 1-1zm5.5 0c.6 0 1 .4 1 1v10a1 1 0 11-2 0v-10c0-.6.4-1 1-1z"/><g fill-rule="nonzero"><path fill="#666472" d="M81.4 587.8c3.5 0 6.2-.7 8-2a6.8 6.8 0 002.8-5.8c0-2-.7-3.5-2-4.7a14.2 14.2 0 00-6.5-3l-1.5-.3-1.8-.6a1 1 0 01-.5-.9c0-.5.3-.9.9-1 .5-.3 1.3-.5 2.4-.5l1.7.2a23.6 23.6 0 014.7 1.3c.4-.3.7-.8 1-1.3a4 4 0 00.4-1.9 3 3 0 00-.6-2c-.5-.5-1.1-1-1.9-1.3-.7-.4-1.6-.7-2.7-.8a20 20 0 00-7.6.2c-1.3.4-2.4.9-3.4 1.5a6.7 6.7 0 00-2.9 5.6c0 2.2.7 3.9 2 5 1.4 1.2 3.5 2 6.3 2.6l1.4.3 2 .6c.3.3.5.6.5 1 0 .6-.3 1-.8 1.2-.5.3-1.3.5-2.3.5-1.5 0-3-.2-4.1-.6-1.2-.4-2.3-.9-3.2-1.4l-1.2 1.3c-.3.6-.4 1.2-.4 2s.2 1.5.7 2.1c.4.6 1 1.1 1.9 1.5.8.4 1.8.7 3 1l3.7.2zm19.9-26.3c1.3 0 2.4-.4 3.2-1.2.8-.9 1.2-1.9 1.2-3.1a4.2 4.2 0 00-4.4-4.3c-1.4 0-2.4.4-3.3 1.2-.8.9-1.2 1.9-1.2 3a4.2 4.2 0 004.5 4.4zm.4 25.9c.7 0 1.4 0 2.1-.2a93 93 0 001.6-.2v-19.6a5 5 0 00-.3-2l-1-1.1c-.3-.3-.8-.5-1.4-.6a11.3 11.3 0 00-4 0l-1.5.3v19.5c0 .8.1 1.5.3 2 .2.5.5.9.9 1.2.4.3.9.4 1.4.5l2 .2zm41.7 0a15.4 15.4 0 003.7-.4v-15.2c0-1.6-.3-3-.9-4.1-.5-1.2-1.2-2-2.1-2.8-1-.6-2-1.1-3.2-1.5-1.1-.3-2.3-.4-3.5-.4a13.3 13.3 0 00-7.6 2.2c-1-.8-2-1.3-3.3-1.7a17.7 17.7 0 00-13 2L112 567c-.4.5-.6 1.2-.6 2v14.5c0 .8.2 1.5.4 2s.5.9.8 1.2c.4.3.9.4 1.5.5l1.9.2a15.4 15.4 0 003.6-.4V570l1-.5c.5-.2 1-.3 1.6-.3.8 0 1.5.3 2 .7.7.4 1 1.1 1 2v11.5c0 .8 0 1.5.3 2 .2.5.5.9.9 1.2.4.3.8.4 1.4.5l1.9.2a15 15 0 003.6-.4v-16.3-.4l1.1-.7 1.5-.3c1 0 1.6.3 2.2.7.5.4.8 1.1.8 2v11.5c0 .8.1 1.5.3 2 .2.5.5.9.9 1.2.4.3.9.4 1.4.5l2 .2zm14 8.1a13.7 13.7 0 003.7-.4v-8a15.2 15.2 0 008.8-.1 10 10 0 006.3-6.2c.6-1.6.9-3.4.9-5.4 0-2.2-.4-4-1-5.6a10.6 10.6 0 00-7-6.1c-1.7-.5-3.5-.7-5.4-.7-1.9 0-3.5.1-5 .5s-2.7 1-3.7 1.6c-.6.4-1.1 1-1.5 1.5-.4.5-.5 1.2-.5 2v23.1c0 .8 0 1.5.2 2 .2.4.5.8 1 1.1.3.3.8.5 1.3.6l2 .1zm6.4-14.2c-.6 0-1 0-1.5-.2l-1.2-.5v-10.5l1.2-.5c.5-.2 1-.3 1.6-.3 1.6 0 2.8.5 3.6 1.5.8 1 1.2 2.5 1.2 4.6 0 4-1.6 5.9-5 5.9z"/><path fill="#585858" d="M185.9 564.2l.3-10.3h-3.4l.2 10.3h2.9zm18 23.4c3.9 0 6.6-1 8.2-2.8 1.6-1.8 2.4-5 2.4-9.4 0-4.5-.8-7.7-2.4-9.5-1.6-1.8-4.3-2.8-8.2-2.8-4 0-6.7 1-8.3 2.8-1.6 1.9-2.4 5-2.4 9.5 0 4.4.8 7.6 2.4 9.4 1.6 1.9 4.4 2.8 8.3 2.8zm0-2.6c-2.9 0-4.8-.7-5.9-2-1-1.5-1.6-4-1.6-7.6 0-3.7.5-6.2 1.6-7.6 1-1.3 3-2 5.9-2 2.8 0 4.7.7 5.8 2 1.1 1.4 1.6 4 1.6 7.6 0 3.6-.5 6.1-1.6 7.5-1 1.4-3 2-5.8 2zm19.5-21l.2-10.1h-2.5l.2 10.2h2.1z"/><path fill="#666472" d="M233.8 587v-17.8c2.2-1.7 4-2.9 5.4-3.6 1.5-.7 3-1.1 4.5-1.1 3.3 0 5 1.8 5 5.3V587h1.2v-17.8c2.1-1.7 4-2.9 5.4-3.6 1.5-.7 3-1.1 4.4-1.1 3.4 0 5 1.8 5 5.3V587h1.2v-17.3c0-2-.5-3.6-1.5-4.7-1-1-2.5-1.6-4.4-1.6-3.2 0-6.6 1.6-10.2 4.7-.5-3.1-2.5-4.7-5.9-4.7-3.2 0-6.6 1.6-10.3 4.8l-.1-4.2h-.9v23h1.2zm46.6.3c2 0 4.1-.5 6.3-1.5 2.1-1 3.7-2.1 4.9-3.3l.2 4.5h.9v-17.2c0-4.3-2.2-6.4-6.4-6.4a85 85 0 00-11 1l.1.9c4-.6 7.7-.8 10.8-.8 3.5 0 5.3 1.8 5.3 5.3v3.3H280c-1.8 0-3.1.5-4 1.4-1 1-1.5 2.3-1.5 4v3c0 1.8.5 3.3 1.5 4.3s2.6 1.5 4.5 1.5zm.3-1.2h-.3c-3.2 0-4.8-1.6-4.8-4.6v-3c0-2.8 1.4-4.2 4.3-4.3l11.6-.2v7.4a18.2 18.2 0 01-11.1 4.7h.3zm28.3 1.2c1.5 0 2.8-.1 4.1-.3l-.1-.8h-4.3c-2.5 0-3.8-1.2-3.8-3.8V565h8.5v-1H305v-7.3h-1.2v7.3l-4.1.2v.8h4.1v17.4c0 3.3 1.8 4.9 5.3 4.9zm12-28.8c.4 0 .6-.2.6-.5v-3c0-.4-.2-.6-.6-.6h-.5c-.4 0-.6.2-.6.6v3c0 .3.2.5.6.5h.5zm.3 28.5v-23h-1.1v23h1.1zm19.5.6c2.3 0 4.6-.3 7-.8l-.2-.9c-1.9.4-4.1.6-6.6.6-3.6 0-6-.8-7.4-2.4-1.4-1.5-2.1-4.4-2.1-8.6 0-4.2.7-7 2-8.7 1.5-1.5 4-2.3 7.5-2.3 2.5 0 4.5.2 6 .6l.2-.9c-1.7-.5-3.9-.8-6.4-.8-3.9 0-6.6.9-8.2 2.7-1.6 1.8-2.3 5-2.3 9.4s.8 7.5 2.4 9.3c1.6 1.9 4.3 2.8 8.1 2.8z"/><path fill="#EF88C5" d="M364.6 587.8c2 0 3.7-.3 5.4-.8a10.4 10.4 0 006.7-6.2c.6-1.6 1-3.4 1-5.5 0-2-.4-3.8-1-5.3a11 11 0 00-6.1-6.2 13.6 13.6 0 00-6.7-.6c-.8 0-1.6.3-2.4.6v-4.7c0-.8 0-1.4-.2-2-.2-.4-.5-.8-1-1.1-.3-.3-.8-.5-1.3-.6l-2-.1a13.7 13.7 0 00-3.6.5v25.5c0 1.6.7 2.9 2 3.9a14 14 0 003.8 1.8c1.5.5 3.3.8 5.4.8zm0-6.5c-.7 0-1.3 0-1.8-.2a5 5 0 01-1.3-.5V570l1.5-.6 1.7-.2c1.4 0 2.5.5 3.3 1.5.9 1 1.3 2.5 1.3 4.5s-.4 3.5-1.3 4.5c-.8 1-2 1.5-3.4 1.5zm29.5 6.5c1.9 0 3.6-.3 5.1-.8a10.8 10.8 0 006.5-6.3c.6-1.6 1-3.4 1-5.4 0-1.8-.4-3.5-1-5a11 11 0 00-6.5-6.5c-1.5-.6-3.2-.8-5.1-.8-2 0-3.6.2-5.2.8a11 11 0 00-6.5 6.4c-.6 1.5-.9 3.2-.9 5.1 0 2 .3 3.7 1 5.2a11 11 0 006.4 6.4c1.6.6 3.3.9 5.2.9zm0-6.4c-1.3 0-2.4-.5-3.1-1.6-.8-1-1.2-2.5-1.2-4.5 0-1.9.4-3.4 1.2-4.4.7-1 1.7-1.6 3-1.6 1.4 0 2.5.6 3.2 1.6.7 1 1.1 2.5 1.1 4.4 0 2-.4 3.4-1 4.5-.8 1-1.8 1.6-3.2 1.6zm26.3 6.3c2.3 0 4-.4 4.8-1.1 1-.8 1.4-1.8 1.4-3 0-.6-.1-1.1-.3-1.6l-.8-1.1a8.4 8.4 0 01-2.8.4 4 4 0 01-2.2-.5c-.5-.4-.8-1-.8-1.8v-7.3h4.4c.8 0 1.5-.2 2-.7.4-.5.7-1.3.7-2.4 0-.7 0-1.3-.3-1.8l-.5-1.3h-6.3v-3c0-1.7-.4-2.7-1.2-3.2-.8-.5-1.9-.8-3.3-.8a12.4 12.4 0 00-3.6.5v20.6c0 2.8.8 5 2.3 6.2 1.5 1.3 3.7 2 6.5 2z"/></g><path fill="#EF88C5" d="M48 552h8v44h-8z"/></g></svg>