<?xml version="1.0" standalone="no"?>
<!DOCTYPE svg PUBLIC "-//W3C//DTD SVG 20010904//EN"
 "http://www.w3.org/TR/2001/REC-SVG-20010904/DTD/svg10.dtd">
<svg version="1.0" xmlns="http://www.w3.org/2000/svg"
 width="537.000000pt" height="537.000000pt" viewBox="0 0 537.000000 537.000000"
 preserveAspectRatio="xMidYMid meet">
<metadata>
Created by potrace 1.11, written by Peter Selinger 2001-2013
</metadata>
<g transform="translate(0.000000,537.000000) scale(0.100000,-0.100000)"
fill="#000000" stroke="none">
<path d="M2582 5348 c-116 -44 -193 -162 -188 -288 10 -260 318 -383 505 -202
60 58 86 121 86 212 0 122 -57 215 -166 271 -62 31 -166 34 -237 7z m174 -144
c98 -46 111 -192 23 -254 -64 -46 -165 -32 -208 29 -92 128 44 292 185 225z"/>
<path d="M2619 4540 c-1 -85 -2 -171 -1 -191 0 -30 -3 -36 -22 -35 -11 1 -27
6 -35 10 -10 6 -12 5 -7 -3 6 -9 -9 -11 -61 -9 -48 2 -67 7 -66 16 2 6 -2 12
-8 12 -6 0 -9 -6 -6 -14 5 -11 -3 -14 -36 -12 -23 1 -49 6 -56 11 -10 5 -12 4
-7 -3 10 -16 -16 -15 -33 1 -11 10 -13 10 -7 0 5 -9 0 -13 -16 -13 -13 0 -30
6 -37 13 -10 9 -12 9 -7 0 5 -9 -9 -12 -56 -10 -35 2 -70 7 -77 12 -10 5 -12
4 -7 -3 10 -17 -175 -16 -193 1 -11 10 -13 10 -7 0 11 -20 -38 -16 -56 5 -9 9
-14 25 -13 35 2 11 1 16 -3 12 -9 -9 -10 -55 -1 -49 4 2 10 0 14 -5 8 -14 -77
-11 -94 3 -12 8 -13 8 -7 -1 12 -20 -38 -16 -56 5 -9 9 -14 25 -13 35 2 11 1
16 -3 12 -9 -9 -10 -55 -1 -49 4 2 10 0 13 -5 4 -6 -32 -9 -91 -8 -72 2 -97 5
-96 15 2 6 -2 12 -8 12 -6 0 -9 -6 -6 -13 4 -11 -9 -14 -56 -13 -34 1 -68 5
-76 10 -10 6 -12 6 -7 -2 5 -9 -7 -12 -41 -13 -26 0 -60 -2 -76 -4 -15 -2 -25
0 -23 4 3 4 -1 8 -9 8 -8 0 -13 -5 -12 -10 1 -6 -13 -13 -30 -17 -22 -5 -33
-4 -33 4 0 6 -5 3 -10 -6 -6 -9 -24 -20 -42 -23 -17 -4 -51 -18 -75 -32 -24
-13 -43 -21 -43 -18 0 4 -7 -1 -16 -10 -9 -9 -23 -14 -30 -11 -7 3 -11 0 -9
-7 2 -7 -20 -30 -50 -52 -30 -22 -76 -68 -101 -102 -26 -34 -52 -59 -58 -56
-5 4 -7 0 -3 -10 6 -17 -15 -41 -27 -30 -4 4 -4 0 -1 -9 4 -9 -4 -36 -16 -60
-13 -23 -24 -47 -25 -53 -20 -94 -38 -130 -58 -118 -5 3 -6 1 -2 -6 4 -6 12
-8 18 -5 7 4 8 -8 2 -37 -4 -24 -6 -57 -5 -72 1 -20 -2 -26 -11 -21 -10 6 -11
4 0 -7 14 -15 17 -63 3 -54 -5 3 -13 1 -16 -5 -4 -6 -1 -9 6 -8 8 2 13 -11 15
-35 2 -24 -1 -35 -8 -31 -7 5 -8 2 -2 -7 5 -8 9 -36 10 -64 l1 -50 -81 0 c-63
-1 -90 -6 -122 -22 -51 -27 -90 -77 -104 -134 -7 -30 -10 -225 -8 -609 3 -564
3 -565 25 -607 27 -50 96 -100 150 -109 61 -10 107 -11 123 -3 13 6 16 -1 18
-37 1 -25 -2 -42 -8 -39 -5 3 -12 1 -15 -5 -4 -6 -1 -9 6 -8 8 2 13 -20 16
-75 3 -51 1 -77 -6 -73 -5 4 -13 2 -16 -4 -4 -6 -1 -9 6 -8 8 2 13 -11 15 -35
2 -26 -1 -35 -9 -30 -9 5 -9 3 0 -8 6 -8 12 -34 11 -57 0 -38 -2 -41 -17 -30
-13 10 -13 9 2 -8 18 -21 24 -70 8 -59 -5 3 -13 1 -16 -5 -4 -6 -1 -9 7 -8 10
2 13 -15 13 -70 0 -39 3 -72 7 -72 4 0 6 -8 6 -17 -1 -10 2 -31 6 -46 4 -18 3
-26 -3 -23 -5 4 -13 2 -16 -4 -4 -6 -3 -10 2 -9 22 4 33 -3 33 -20 0 -11 9
-40 20 -66 11 -25 16 -44 11 -40 -11 6 -8 -22 4 -32 4 -4 5 -2 1 4 -4 7 -2 13
3 13 10 0 15 -14 12 -32 0 -5 3 -8 7 -8 13 0 43 -59 36 -72 -4 -6 -3 -8 3 -5
10 6 43 -26 43 -42 0 -5 7 -11 15 -15 10 -4 14 -14 11 -31 -3 -15 -1 -23 5
-20 5 4 7 11 4 16 -10 14 3 11 25 -8 11 -10 20 -23 20 -31 0 -7 4 -11 9 -7 5
3 21 -6 34 -19 14 -14 28 -22 31 -19 3 4 6 1 6 -4 0 -6 -6 -13 -12 -15 -7 -3
2 -5 21 -5 23 0 40 -7 51 -21 10 -12 20 -19 23 -16 2 3 28 -6 56 -20 28 -13
69 -27 90 -31 25 -4 42 -13 44 -23 4 -15 5 -15 6 0 1 14 6 16 24 10 12 -5 42
-10 67 -11 28 -1 50 -9 59 -19 13 -16 13 -16 8 1 -6 16 -1 17 56 14 34 -1 69
-7 76 -11 10 -6 12 -5 7 2 -10 16 16 15 33 -1 11 -9 13 -9 7 1 -11 19 38 15
56 -5 9 -10 14 -26 13 -36 -2 -11 -1 -16 3 -12 9 9 10 55 1 49 -4 -2 -10 0
-14 5 -8 14 197 12 214 -2 12 -9 13 -9 7 1 -10 17 174 17 193 -1 11 -9 13 -9
7 1 -11 19 38 15 56 -5 9 -10 14 -26 13 -36 -2 -11 -1 -16 3 -12 9 9 10 55 1
49 -4 -2 -10 0 -14 5 -7 12 114 9 134 -3 10 -6 12 -5 7 2 -10 16 16 15 33 -1
11 -9 13 -9 7 1 -11 20 41 15 54 -5 11 -17 11 -17 6 0 -5 16 1 17 57 14 34 -1
69 -7 76 -11 10 -6 12 -5 7 2 -10 16 16 15 33 0 11 -10 13 -10 7 0 -11 19 38
15 56 -5 9 -10 14 -26 13 -36 -2 -11 -1 -16 3 -12 9 9 10 55 1 49 -4 -2 -10 0
-14 5 -8 14 197 12 214 -2 12 -9 13 -9 7 1 -10 17 174 17 193 -1 11 -9 13 -9
7 1 -11 19 38 15 56 -5 9 -10 14 -26 13 -36 -2 -11 -1 -16 3 -12 9 9 10 55 1
49 -4 -2 -10 0 -14 5 -7 12 114 9 134 -3 10 -6 12 -5 7 2 -10 16 16 15 33 0
11 -10 13 -10 7 0 -11 20 41 15 54 -5 11 -17 11 -17 6 0 -5 16 1 17 57 14 34
-1 69 -7 76 -11 10 -6 12 -5 7 2 -10 16 16 15 33 -1 11 -9 13 -9 7 1 -11 19
38 15 56 -5 9 -10 14 -26 13 -36 -2 -11 -1 -16 3 -12 9 9 10 55 1 49 -4 -2
-10 0 -14 5 -8 14 197 12 214 -2 11 -9 13 -9 8 0 -7 12 10 12 121 4 6 -1 12
-11 13 -23 0 -13 3 -18 5 -11 4 9 11 9 30 1 26 -12 29 -19 14 -34 -6 -6 -3
-10 9 -10 12 0 17 5 13 14 -4 11 1 10 21 -3 15 -9 24 -21 22 -26 -3 -4 3 -6
15 -4 11 2 22 0 25 -5 3 -5 21 -17 40 -26 19 -9 35 -21 35 -26 0 -5 4 -7 9 -3
5 3 15 -1 23 -7 7 -7 34 -24 60 -37 26 -13 45 -27 43 -31 -3 -4 3 -7 13 -6 9
0 16 -4 15 -11 -2 -7 4 -10 12 -7 8 4 15 1 15 -5 0 -6 7 -8 15 -5 8 4 15 2 15
-2 0 -5 20 -20 45 -33 25 -13 45 -28 45 -32 0 -5 4 -8 8 -6 5 1 33 -11 62 -27
30 -17 71 -31 90 -33 19 -2 43 -12 54 -21 11 -9 16 -12 13 -5 -9 15 2 22 42
25 18 1 35 6 37 10 3 4 14 8 25 8 10 0 19 5 19 10 0 6 10 10 22 10 12 0 19 3
15 6 -9 9 43 75 54 68 5 -3 6 1 3 9 -2 7 0 26 6 42 6 15 13 44 16 64 3 20 13
45 22 56 16 18 16 19 -1 6 -16 -13 -17 -4 -17 143 0 87 4 155 8 152 5 -3 9 1
9 9 0 8 -4 12 -9 9 -4 -3 -8 65 -8 151 0 86 4 154 8 151 5 -3 9 1 9 9 0 8 -4
12 -9 9 -4 -3 -8 65 -8 151 0 122 3 155 13 149 10 -6 10 -4 0 7 -18 19 -18
323 0 313 9 -6 9 -5 -1 8 -12 15 -16 168 -5 168 3 0 12 -8 20 -17 8 -10 12
-13 9 -7 -4 8 11 12 49 13 57 0 133 27 169 59 10 9 29 40 42 67 l24 50 0 565
c-1 407 -4 577 -12 605 -17 54 -84 118 -140 134 -25 7 -73 11 -107 9 -57 -3
-78 4 -48 15 9 4 9 6 0 6 -10 1 -13 32 -13 123 0 101 3 125 18 142 16 20 16
20 0 7 -19 -14 -18 -18 -21 77 -1 15 -6 30 -12 35 -14 10 13 26 37 22 10 -2
16 0 13 5 -3 5 -17 6 -31 4 -21 -4 -25 -2 -20 11 3 9 2 14 -3 10 -8 -4 -22 36
-23 62 0 5 -4 14 -10 20 -6 7 -8 20 -4 28 3 9 2 14 -3 10 -5 -3 -16 7 -23 22
-20 39 -42 77 -48 83 -3 3 -17 21 -30 40 -14 19 -39 48 -57 63 -18 16 -30 34
-26 40 3 5 2 7 -4 4 -5 -3 -25 7 -44 22 -19 15 -44 33 -57 40 -13 7 -20 17
-16 23 5 7 2 9 -9 5 -9 -3 -22 0 -29 7 -7 7 -26 16 -41 20 -15 3 -25 11 -22
15 3 5 -4 7 -15 4 -11 -3 -20 -1 -20 4 0 5 -6 10 -12 10 -7 0 -49 8 -93 17
-44 9 -109 17 -145 19 -36 2 -72 7 -79 11 -10 7 -12 5 -6 -3 9 -16 -213 -13
-234 3 -11 8 -13 8 -7 -1 4 -8 2 -13 -6 -13 -8 0 -20 6 -27 13 -11 10 -13 10
-7 0 5 -9 0 -13 -16 -13 -13 0 -30 6 -37 13 -8 7 -11 7 -8 1 8 -14 -190 -13
-212 1 -10 5 -12 4 -7 -3 10 -16 -16 -15 -33 1 -11 10 -13 10 -7 0 11 -21 -41
-16 -54 5 -10 15 -11 15 -6 0 4 -15 -5 -17 -97 -14 -57 1 -109 6 -116 11 -10
5 -12 4 -7 -3 10 -16 -16 -15 -33 1 -11 10 -13 10 -7 0 5 -9 0 -13 -16 -13
-13 0 -30 6 -37 13 -8 7 -11 7 -8 1 8 -14 -190 -13 -212 1 -10 5 -12 4 -7 -3
4 -7 1 -12 -8 -12 -14 0 -16 25 -16 190 0 105 -3 190 -7 191 -5 0 -38 1 -76 2
l-67 2 -1 -155z m-1142 -492 c12 -9 15 -10 9 0 -5 9 16 12 94 12 65 0 99 -4
95 -10 -3 -5 -1 -10 4 -10 6 0 11 5 11 10 0 15 253 13 269 -2 11 -10 13 -10 7
0 -6 9 16 12 94 12 65 0 99 -4 95 -10 -3 -5 -1 -10 4 -10 6 0 11 5 11 10 0 15
253 13 269 -2 11 -10 13 -10 7 0 -5 9 9 12 61 12 41 0 74 -5 82 -12 11 -10 13
-10 7 0 -9 15 59 17 69 2 3 -5 12 -10 18 -10 7 0 6 4 -3 10 -11 7 -6 10 20 10
20 0 42 -6 49 -12 11 -10 13 -10 7 0 -9 15 59 17 69 2 3 -5 12 -10 18 -10 7 0
6 4 -3 10 -11 7 -6 10 21 10 19 0 41 -6 48 -12 11 -10 13 -10 7 0 -9 15 59 17
69 2 3 -5 12 -10 18 -10 7 0 6 4 -3 10 -11 7 -6 10 21 10 19 0 41 -6 48 -12
11 -10 13 -10 7 0 -9 15 59 17 69 2 3 -5 12 -10 18 -10 7 0 6 4 -3 10 -11 7
-6 10 21 10 19 0 41 -6 48 -12 11 -10 13 -10 7 0 -9 15 59 17 69 2 3 -5 12
-10 18 -10 7 0 6 4 -3 10 -11 7 -6 10 21 10 19 0 41 -6 48 -12 11 -10 13 -10
7 0 -9 15 59 17 69 2 3 -5 12 -10 18 -10 7 0 6 4 -3 10 -11 7 -6 10 21 10 19
0 41 -6 48 -12 11 -10 13 -10 7 0 -9 15 59 17 69 2 3 -5 12 -10 18 -10 7 0 6
4 -3 10 -11 7 -6 10 21 10 19 0 41 -6 48 -12 11 -10 13 -10 7 0 -9 15 59 17
69 2 3 -5 12 -10 18 -10 7 0 6 4 -3 10 -10 7 5 10 53 10 43 0 66 -4 62 -10 -3
-5 -1 -10 4 -10 6 0 11 5 11 11 0 6 34 9 97 8 76 -1 101 -5 110 -18 12 -14 12
-14 8 0 -4 10 0 16 10 16 8 0 15 -3 15 -6 0 -4 10 -7 23 -9 34 -2 117 -41 117
-54 0 -6 3 -8 6 -5 9 9 46 -12 39 -23 -3 -5 0 -12 6 -16 8 -4 9 -3 5 4 -4 7
-2 12 3 12 6 0 11 -4 11 -8 0 -5 11 -15 25 -22 14 -8 23 -20 21 -27 -3 -7 0
-15 6 -19 7 -4 8 -3 4 4 -4 7 -2 12 3 12 6 0 11 -4 11 -10 0 -5 12 -21 26 -35
15 -15 23 -32 20 -41 -3 -8 -2 -13 2 -10 13 8 43 -50 35 -70 -4 -11 -3 -15 4
-11 14 9 37 -57 30 -84 -3 -10 -1 -17 4 -13 5 3 9 -5 9 -18 0 -18 -2 -20 -10
-8 -6 9 -10 10 -10 3 0 -6 4 -14 10 -18 5 -3 9 -69 9 -150 0 -102 -4 -143 -11
-139 -7 5 -8 2 -2 -7 14 -23 15 -141 1 -133 -8 5 -8 3 1 -7 17 -18 16 -60 -1
-53 -8 3 -20 -3 -28 -13 -13 -16 -12 -17 3 -5 19 15 38 8 38 -14 0 -10 -5 -12
-12 -8 -10 6 -10 4 -2 -7 15 -21 18 -403 2 -393 -7 5 -8 3 -2 -7 14 -23 15
-141 1 -133 -8 5 -8 3 1 -7 17 -18 16 -60 -1 -53 -8 3 -20 -3 -28 -13 -13 -16
-12 -17 3 -5 19 15 38 8 38 -14 0 -10 -5 -12 -12 -8 -10 6 -10 4 -2 -7 15 -21
18 -403 2 -393 -7 5 -8 3 -2 -7 14 -23 15 -141 1 -133 -8 5 -8 3 1 -7 17 -18
16 -60 -1 -53 -8 3 -20 -3 -28 -13 -13 -16 -12 -17 3 -5 19 15 38 8 38 -14 0
-10 -5 -12 -12 -8 -10 6 -10 4 -2 -7 15 -21 18 -403 2 -393 -7 5 -8 3 -2 -7
14 -23 15 -141 1 -132 -8 4 -8 2 1 -9 14 -17 13 -53 -2 -77 -6 -9 -5 -12 2 -8
7 5 10 -14 10 -55 -1 -54 -2 -59 -14 -43 -8 10 -14 14 -14 8 0 -6 6 -16 14
-22 16 -13 17 -155 2 -180 -6 -9 -5 -12 2 -7 17 10 9 -63 -8 -76 -12 -8 -12
-9 3 -4 20 6 23 -14 4 -33 -6 -8 -7 -11 -1 -8 6 4 10 -18 11 -64 1 -50 -2 -67
-10 -63 -8 5 -8 2 0 -7 17 -18 17 -63 1 -53 -10 6 -10 4 -1 -7 15 -15 18 -43
4 -34 -5 3 -13 1 -16 -5 -4 -6 -1 -9 6 -8 8 2 13 -19 15 -72 2 -41 1 -69 -2
-62 -3 6 -10 10 -15 6 -5 -3 -12 2 -15 10 -3 9 -10 13 -15 11 -4 -3 -17 3 -29
15 -11 11 -23 21 -27 21 -15 3 -38 13 -43 18 -3 3 -32 20 -65 38 -33 17 -59
36 -58 42 2 6 -4 8 -12 5 -9 -4 -22 -1 -31 6 -12 11 -12 15 -2 23 10 6 8 7 -4
3 -21 -6 -80 22 -73 35 4 5 -1 6 -9 3 -10 -4 -16 -1 -16 7 0 7 -3 10 -6 6 -9
-8 -64 21 -64 33 0 6 -4 9 -8 7 -15 -4 -102 48 -98 59 3 7 -3 10 -12 7 -9 -2
-39 10 -65 27 -45 28 -53 30 -150 30 -69 0 -108 4 -116 13 -11 10 -13 9 -7 0
5 -10 -9 -13 -61 -13 -41 0 -74 5 -82 13 -11 10 -13 10 -7 0 9 -16 -59 -18
-69 -3 -3 6 -12 10 -18 10 -7 0 -6 -4 3 -10 10 -7 -24 -10 -106 -10 -82 0
-124 4 -133 12 -11 10 -13 10 -7 1 5 -10 -9 -13 -61 -13 -41 0 -74 5 -82 13
-11 10 -13 10 -7 0 9 -16 -59 -18 -69 -3 -3 6 -12 10 -18 10 -7 0 -6 -4 3 -10
10 -7 -24 -10 -106 -10 -82 0 -124 4 -133 12 -11 10 -13 10 -7 1 6 -10 -16
-13 -94 -13 -65 0 -99 4 -95 10 3 5 1 10 -4 10 -6 0 -11 -4 -11 -10 0 -6 -32
-10 -76 -10 -47 0 -73 4 -69 10 3 6 1 10 -4 10 -6 0 -11 -4 -11 -10 0 -6 -32
-10 -76 -10 -47 0 -73 4 -69 10 3 6 1 10 -4 10 -6 0 -11 -4 -11 -10 0 -6 -32
-10 -76 -10 -47 0 -73 4 -69 10 3 6 1 10 -4 10 -6 0 -11 -4 -11 -10 0 -15
-253 -13 -269 3 -11 10 -13 10 -7 0 10 -18 -125 -18 -143 0 -11 10 -13 9 -7 0
9 -16 -59 -18 -69 -3 -3 6 -12 10 -18 10 -7 0 -6 -4 3 -10 10 -7 -13 -10 -74
-10 -73 0 -91 3 -102 18 -13 16 -14 16 -8 0 7 -21 -6 -23 -25 -6 -11 10 -13
10 -7 1 9 -17 -6 -17 -23 -1 -11 11 -12 10 -6 -1 6 -10 4 -12 -5 -6 -7 4 -29
9 -48 11 -20 2 -40 8 -46 14 -5 5 -18 10 -28 10 -10 0 -18 5 -18 11 0 5 -4 8
-9 4 -5 -3 -16 1 -23 9 -8 7 -24 16 -35 20 -12 4 -35 22 -52 41 -17 19 -33 35
-36 35 -16 0 -82 98 -77 113 1 4 -3 7 -9 7 -5 0 -7 5 -4 10 3 6 2 10 -3 10 -8
0 -15 17 -39 100 -12 43 -12 54 0 69 9 12 9 13 0 7 -8 -4 -13 -1 -13 9 0 10 5
13 13 9 9 -6 8 -3 -1 9 -16 19 -12 63 6 59 8 -1 11 2 7 8 -3 6 -11 8 -16 5 -5
-4 -9 35 -9 96 0 85 3 104 18 115 16 13 16 14 0 8 -14 -5 -18 -1 -18 20 0 14
6 26 13 26 9 0 9 2 0 8 -18 11 -12 98 6 94 7 -1 10 2 6 8 -3 6 -10 8 -15 5 -5
-3 -9 20 -9 50 0 40 4 53 12 48 16 -10 57 -12 62 -3 2 4 -10 6 -27 6 -42 -1
-61 27 -33 49 16 12 17 14 3 9 -14 -5 -18 -1 -18 20 0 14 6 26 13 26 9 0 9 2
0 8 -18 11 -12 98 6 94 7 -1 10 2 6 8 -3 6 -10 8 -15 5 -5 -3 -9 20 -9 50 0
40 4 53 12 48 16 -10 57 -12 62 -3 2 4 -8 6 -23 5 -40 -3 -49 9 -50 72 -2 41
1 54 8 43 6 -9 10 -10 10 -3 0 6 -4 15 -10 18 -14 9 -12 55 3 55 9 0 9 2 0 8
-8 5 -12 72 -12 237 0 165 4 232 12 237 9 6 9 8 0 8 -7 0 -13 12 -13 26 0 17
4 23 13 18 9 -6 8 -3 -1 9 -16 19 -12 63 6 59 8 -1 11 2 7 8 -3 6 -11 8 -16 5
-5 -4 -9 52 -8 141 0 94 4 143 10 134 5 -9 9 -10 9 -3 0 6 -4 15 -10 18 -14 9
-12 55 3 55 9 0 9 2 0 8 -7 4 -11 37 -11 87 0 62 4 82 17 92 15 12 15 13 -1 7
-14 -5 -18 -1 -18 20 0 14 6 26 13 26 9 0 9 2 0 8 -13 8 -15 71 -1 73 4 1 12
2 17 3 5 0 13 4 16 8 4 4 -4 5 -17 3 -23 -4 -25 -2 -22 23 2 16 9 42 15 58 7
16 12 32 11 37 -1 4 3 7 10 7 6 0 8 3 5 7 -4 3 5 27 20 52 29 51 63 97 63 87
0 -4 6 -1 14 6 8 7 13 15 11 18 -2 3 3 11 11 18 8 7 14 10 14 5 0 -4 6 1 13
12 8 10 19 15 26 11 6 -4 10 -3 9 2 -2 6 1 10 6 10 5 0 12 4 15 9 3 5 18 16
33 25 20 13 28 14 31 5 3 -7 6 -5 6 5 1 12 13 20 39 25 20 4 40 6 45 5 4 -1 7
1 7 6 0 4 59 8 131 10 97 3 134 0 146 -10z m-959 -923 c16 -20 20 -41 20 -110
1 -63 -2 -84 -11 -78 -9 5 -9 3 0 -8 6 -8 12 -34 11 -57 0 -38 -2 -41 -17 -30
-13 10 -13 9 2 -8 18 -21 24 -70 8 -59 -5 3 -13 1 -16 -5 -4 -6 -1 -9 7 -8 10
2 13 -30 14 -154 1 -114 -2 -156 -10 -151 -7 5 -7 2 1 -8 6 -8 12 -34 11 -57
0 -38 -2 -41 -17 -30 -13 10 -13 9 2 -8 18 -21 24 -70 8 -59 -5 3 -13 1 -16
-5 -4 -6 -1 -9 6 -8 8 2 13 -16 16 -57 l5 -59 -24 19 -23 20 20 -23 c23 -28
33 -78 13 -66 -10 6 -11 5 -1 -7 17 -21 12 -121 -5 -114 -7 3 -10 1 -7 -5 8
-14 -29 -30 -69 -30 -23 0 -43 7 -56 20 -20 20 -20 33 -20 575 0 542 0 555 20
575 30 30 102 28 128 -5z m4381 13 c11 -10 13 -10 7 0 -12 21 52 14 74 -8 20
-20 20 -33 20 -575 0 -546 0 -555 -20 -575 -28 -28 -104 -25 -131 4 -17 17
-19 37 -19 163 0 113 3 143 13 137 10 -6 10 -4 0 7 -9 9 -13 58 -13 167 0 120
3 152 13 146 10 -6 10 -4 0 7 -9 9 -13 58 -13 167 0 120 3 152 13 146 9 -6 8
-3 -1 8 -9 11 -13 41 -11 90 3 90 8 111 25 104 8 -3 13 -2 13 2 -4 25 10 29
30 10z"/>
<path d="M1230 4046 c0 -2 8 -10 18 -17 15 -13 16 -12 3 4 -13 16 -21 21 -21
13z"/>
<path d="M1354 4036 c1 -8 5 -18 8 -22 4 -3 5 1 4 10 -1 8 -5 18 -8 22 -4 3
-5 -1 -4 -10z"/>
<path d="M1594 4036 c1 -8 5 -18 8 -22 4 -3 5 1 4 10 -1 8 -5 18 -8 22 -4 3
-5 -1 -4 -10z"/>
<path d="M1834 4036 c1 -8 5 -18 8 -22 4 -3 5 1 4 10 -1 8 -5 18 -8 22 -4 3
-5 -1 -4 -10z"/>
<path d="M2074 4036 c1 -8 5 -18 8 -22 4 -3 5 1 4 10 -1 8 -5 18 -8 22 -4 3
-5 -1 -4 -10z"/>
<path d="M2314 4036 c1 -8 5 -18 8 -22 4 -3 5 1 4 10 -1 8 -5 18 -8 22 -4 3
-5 -1 -4 -10z"/>
<path d="M2553 4035 c0 -8 4 -15 9 -15 4 0 8 4 8 9 0 6 -4 12 -8 15 -5 3 -9
-1 -9 -9z"/>
<path d="M2636 4037 c3 -10 9 -15 12 -12 3 3 0 11 -7 18 -10 9 -11 8 -5 -6z"/>
<path d="M2796 4037 c3 -10 9 -15 12 -12 3 3 0 11 -7 18 -10 9 -11 8 -5 -6z"/>
<path d="M2956 4037 c3 -10 9 -15 12 -12 3 3 0 11 -7 18 -10 9 -11 8 -5 -6z"/>
<path d="M3116 4037 c3 -10 9 -15 12 -12 3 3 0 11 -7 18 -10 9 -11 8 -5 -6z"/>
<path d="M3276 4037 c3 -10 9 -15 12 -12 3 3 0 11 -7 18 -10 9 -11 8 -5 -6z"/>
<path d="M3436 4037 c3 -10 9 -15 12 -12 3 3 0 11 -7 18 -10 9 -11 8 -5 -6z"/>
<path d="M3596 4037 c3 -10 9 -15 12 -12 3 3 0 11 -7 18 -10 9 -11 8 -5 -6z"/>
<path d="M3756 4037 c3 -10 9 -15 12 -12 3 3 0 11 -7 18 -10 9 -11 8 -5 -6z"/>
<path d="M2710 4030 c0 -5 5 -10 10 -10 6 0 10 5 10 10 0 6 -4 10 -10 10 -5 0
-10 -4 -10 -10z"/>
<path d="M2870 4030 c0 -5 5 -10 10 -10 6 0 10 5 10 10 0 6 -4 10 -10 10 -5 0
-10 -4 -10 -10z"/>
<path d="M3030 4030 c0 -5 5 -10 10 -10 6 0 10 5 10 10 0 6 -4 10 -10 10 -5 0
-10 -4 -10 -10z"/>
<path d="M3190 4030 c0 -5 5 -10 10 -10 6 0 10 5 10 10 0 6 -4 10 -10 10 -5 0
-10 -4 -10 -10z"/>
<path d="M3350 4030 c0 -5 5 -10 10 -10 6 0 10 5 10 10 0 6 -4 10 -10 10 -5 0
-10 -4 -10 -10z"/>
<path d="M3510 4030 c0 -5 5 -10 10 -10 6 0 10 5 10 10 0 6 -4 10 -10 10 -5 0
-10 -4 -10 -10z"/>
<path d="M3670 4030 c0 -5 5 -10 10 -10 6 0 10 5 10 10 0 6 -4 10 -10 10 -5 0
-10 -4 -10 -10z"/>
<path d="M3830 4031 c0 -6 4 -12 8 -15 5 -3 9 1 9 9 0 8 -4 15 -9 15 -4 0 -8
-4 -8 -9z"/>
<path d="M1456 4017 c3 -10 9 -15 12 -12 3 3 0 11 -7 18 -10 9 -11 8 -5 -6z"/>
<path d="M1671 4017 c-8 -10 -7 -14 2 -14 8 0 14 6 14 14 0 7 -1 13 -2 13 -2
0 -8 -6 -14 -13z"/>
<path d="M1936 4017 c3 -10 9 -15 12 -12 3 3 0 11 -7 18 -10 9 -11 8 -5 -6z"/>
<path d="M2151 4017 c-8 -10 -7 -14 2 -14 8 0 14 6 14 14 0 7 -1 13 -2 13 -2
0 -8 -6 -14 -13z"/>
<path d="M2416 4017 c3 -10 9 -15 12 -12 3 3 0 11 -7 18 -10 9 -11 8 -5 -6z"/>
<path d="M3911 4017 c-8 -10 -7 -14 2 -14 8 0 14 6 14 14 0 7 -1 13 -2 13 -2
0 -8 -6 -14 -13z"/>
<path d="M4176 4017 c3 -10 9 -15 12 -12 3 3 0 11 -7 18 -10 9 -11 8 -5 -6z"/>
<path d="M1150 4011 c0 -6 4 -13 10 -16 6 -3 7 1 4 9 -7 18 -14 21 -14 7z"/>
<path d="M1286 4008 c3 -5 10 -6 15 -3 13 9 11 12 -6 12 -8 0 -12 -4 -9 -9z"/>
<path d="M1485 4010 c-3 -6 1 -7 9 -4 18 7 21 14 7 14 -6 0 -13 -4 -16 -10z"/>
<path d="M1746 4012 c-2 -4 4 -8 14 -8 10 0 16 4 14 8 -3 4 -9 8 -14 8 -5 0
-11 -4 -14 -8z"/>
<path d="M1965 4010 c-3 -6 1 -7 9 -4 18 7 21 14 7 14 -6 0 -13 -4 -16 -10z"/>
<path d="M2226 4012 c-2 -4 4 -8 14 -8 10 0 16 4 14 8 -3 4 -9 8 -14 8 -5 0
-11 -4 -14 -8z"/>
<path d="M2445 4010 c-3 -6 1 -7 9 -4 18 7 21 14 7 14 -6 0 -13 -4 -16 -10z"/>
<path d="M3986 4012 c-2 -4 4 -8 14 -8 10 0 16 4 14 8 -3 4 -9 8 -14 8 -5 0
-11 -4 -14 -8z"/>
<path d="M4100 4010 c-9 -6 -10 -10 -3 -10 6 0 15 5 18 10 8 12 4 12 -15 0z"/>
<path d="M4130 4011 c0 -6 4 -13 10 -16 6 -3 7 1 4 9 -7 18 -14 21 -14 7z"/>
<path d="M4205 4010 c-3 -6 1 -7 9 -4 18 7 21 14 7 14 -6 0 -13 -4 -16 -10z"/>
<path d="M1233 3985 c0 -8 4 -12 9 -9 5 3 6 10 3 15 -9 13 -12 11 -12 -6z"/>
<path d="M1313 3985 c0 -8 4 -12 9 -9 5 3 6 10 3 15 -9 13 -12 11 -12 -6z"/>
<path d="M1347 3989 c7 -7 15 -10 18 -7 3 3 -2 9 -12 12 -14 6 -15 5 -6 -5z"/>
<path d="M1386 3992 c-3 -5 1 -9 9 -9 8 0 15 4 15 9 0 4 -4 8 -9 8 -6 0 -12
-4 -15 -8z"/>
<path d="M1553 3985 c0 -8 4 -12 9 -9 5 3 6 10 3 15 -9 13 -12 11 -12 -6z"/>
<path d="M1793 3985 c0 -8 4 -12 9 -9 5 3 6 10 3 15 -9 13 -12 11 -12 -6z"/>
<path d="M1827 3989 c7 -7 15 -10 18 -7 3 3 -2 9 -12 12 -14 6 -15 5 -6 -5z"/>
<path d="M1866 3992 c-3 -5 1 -9 9 -9 8 0 15 4 15 9 0 4 -4 8 -9 8 -6 0 -12
-4 -15 -8z"/>
<path d="M2033 3985 c0 -8 4 -12 9 -9 5 3 6 10 3 15 -9 13 -12 11 -12 -6z"/>
<path d="M2273 3985 c0 -8 4 -12 9 -9 5 3 6 10 3 15 -9 13 -12 11 -12 -6z"/>
<path d="M2307 3989 c7 -7 15 -10 18 -7 3 3 -2 9 -12 12 -14 6 -15 5 -6 -5z"/>
<path d="M2346 3992 c-3 -5 1 -9 9 -9 8 0 15 4 15 9 0 4 -4 8 -9 8 -6 0 -12
-4 -15 -8z"/>
<path d="M2513 3985 c0 -8 4 -12 9 -9 5 3 6 10 3 15 -9 13 -12 11 -12 -6z"/>
<path d="M4033 3985 c0 -8 4 -12 9 -9 5 3 6 10 3 15 -9 13 -12 11 -12 -6z"/>
<path d="M4274 3965 c0 -19 3 -32 5 -29 8 7 9 54 2 59 -4 2 -7 -12 -7 -30z"/>
<path d="M4170 3986 c0 -2 8 -10 18 -17 15 -13 16 -12 3 4 -13 16 -21 21 -21
13z"/>
<path d="M4214 3969 c-4 -7 -3 -9 4 -5 6 3 15 -2 21 -11 6 -10 11 -13 11 -7 0
20 -27 37 -36 23z"/>
<path d="M4310 3952 c0 -5 7 -9 15 -9 8 0 12 4 9 9 -3 4 -9 8 -15 8 -5 0 -9
-4 -9 -8z"/>
<path d="M4354 3898 l-19 -23 23 19 c21 18 27 26 19 26 -2 0 -12 -10 -23 -22z"/>
<path d="M4396 3877 c3 -10 9 -15 12 -12 3 3 0 11 -7 18 -10 9 -11 8 -5 -6z"/>
<path d="M950 3868 c0 -4 4 -8 9 -8 6 0 12 4 15 8 3 5 -1 9 -9 9 -8 0 -15 -4
-15 -9z"/>
<path d="M915 3850 c3 -5 8 -10 11 -10 2 0 4 5 4 10 0 6 -5 10 -11 10 -5 0 -7
-4 -4 -10z"/>
<path d="M4413 3806 c-3 -6 -3 -8 2 -4 4 4 13 3 20 -2 8 -7 12 -5 12 3 0 16
-25 18 -34 3z"/>
<path d="M849 3733 c-13 -16 -12 -17 4 -4 9 7 17 15 17 17 0 8 -8 3 -21 -13z"/>
<path d="M880 3730 c-9 -6 -10 -10 -3 -10 6 0 15 5 18 10 8 12 4 12 -15 0z"/>
<path d="M4497 3703 c-10 -9 -9 -23 1 -23 5 0 9 7 9 15 0 17 -1 18 -10 8z"/>
<path d="M4510 3649 c0 -5 5 -7 10 -4 6 3 10 8 10 11 0 2 -4 4 -10 4 -5 0 -10
-5 -10 -11z"/>
<path d="M4535 3621 c-3 -5 -2 -12 3 -15 5 -3 9 1 9 9 0 17 -3 19 -12 6z"/>
<path d="M4542 3574 c10 -10 20 -16 22 -13 3 3 -5 11 -17 18 -21 13 -21 12 -5
-5z"/>
<path d="M810 3571 c0 -6 4 -12 8 -15 5 -3 9 1 9 9 0 8 -4 15 -9 15 -4 0 -8
-4 -8 -9z"/>
<path d="M850 3546 c0 -2 8 -10 18 -17 15 -13 16 -12 3 4 -13 16 -21 21 -21
13z"/>
<path d="M4550 3531 c0 -6 4 -12 8 -15 5 -3 9 1 9 9 0 8 -4 15 -9 15 -4 0 -8
-4 -8 -9z"/>
<path d="M4539 3483 c-13 -16 -12 -17 4 -4 9 7 17 15 17 17 0 8 -8 3 -21 -13z"/>
<path d="M835 3451 c-3 -5 -2 -12 3 -15 5 -3 9 1 9 9 0 17 -3 19 -12 6z"/>
<path d="M4545 3410 c10 -11 20 -20 23 -20 3 0 -3 9 -13 20 -10 11 -20 20 -23
20 -3 0 3 -9 13 -20z"/>
<path d="M830 3409 c0 -5 5 -7 10 -4 6 3 10 8 10 11 0 2 -4 4 -10 4 -5 0 -10
-5 -10 -11z"/>
<path d="M4550 3371 c0 -6 4 -12 8 -15 5 -3 9 1 9 9 0 8 -4 15 -9 15 -4 0 -8
-4 -8 -9z"/>
<path d="M810 3331 c0 -6 4 -12 8 -15 5 -3 9 1 9 9 0 8 -4 15 -9 15 -4 0 -8
-4 -8 -9z"/>
<path d="M4539 3323 c-13 -16 -12 -17 4 -4 9 7 17 15 17 17 0 8 -8 3 -21 -13z"/>
<path d="M854 3290 c0 -13 4 -16 10 -10 7 7 7 13 0 20 -6 6 -10 3 -10 -10z"/>
<path d="M4550 3191 c0 -6 4 -13 10 -16 6 -3 7 1 4 9 -7 18 -14 21 -14 7z"/>
<path d="M810 3171 c0 -6 4 -12 8 -15 5 -3 9 1 9 9 0 8 -4 15 -9 15 -4 0 -8
-4 -8 -9z"/>
<path d="M816 3132 c-3 -5 1 -9 9 -9 8 0 12 4 9 9 -3 4 -7 8 -9 8 -2 0 -6 -4
-9 -8z"/>
<path d="M830 3032 c0 -5 7 -9 15 -9 8 0 12 4 9 9 -3 4 -9 8 -15 8 -5 0 -9 -4
-9 -8z"/>
<path d="M835 2980 c-4 -6 -11 -8 -16 -5 -5 4 -9 1 -9 -4 0 -16 16 -13 30 4 7
8 10 15 7 15 -3 0 -9 -5 -12 -10z"/>
<path d="M830 2929 c0 -5 5 -7 10 -4 6 3 10 8 10 11 0 2 -4 4 -10 4 -5 0 -10
-5 -10 -11z"/>
<path d="M846 2891 c-14 -15 -15 -21 -4 -27 7 -4 10 -3 5 1 -4 5 0 17 10 27 9
10 14 18 11 18 -3 0 -13 -9 -22 -19z"/>
<path d="M4555 2891 c-3 -5 -2 -12 3 -15 5 -3 9 1 9 9 0 17 -3 19 -12 6z"/>
<path d="M4539 2843 c-13 -16 -12 -17 4 -4 9 7 17 15 17 17 0 8 -8 3 -21 -13z"/>
<path d="M829 2833 c-13 -16 -12 -17 4 -4 9 7 17 15 17 17 0 8 -8 3 -21 -13z"/>
<path d="M846 2808 c3 -5 10 -6 15 -3 13 9 11 12 -6 12 -8 0 -12 -4 -9 -9z"/>
<path d="M4533 2775 c0 -8 4 -15 9 -15 4 0 8 4 8 9 0 6 -4 12 -8 15 -5 3 -9
-1 -9 -9z"/>
<path d="M810 2771 c0 -6 4 -12 8 -15 5 -3 9 1 9 9 0 8 -4 15 -9 15 -4 0 -8
-4 -8 -9z"/>
<path d="M850 2746 c0 -2 8 -10 18 -17 15 -13 16 -12 3 4 -13 16 -21 21 -21
13z"/>
<path d="M4550 2731 c0 -6 4 -12 8 -15 5 -3 9 1 9 9 0 8 -4 15 -9 15 -4 0 -8
-4 -8 -9z"/>
<path d="M4539 2683 c-13 -16 -12 -17 4 -4 9 7 17 15 17 17 0 8 -8 3 -21 -13z"/>
<path d="M2087 2675 c-30 -22 -38 -63 -26 -129 13 -71 16 -220 5 -289 -23
-156 -105 -240 -232 -237 -77 1 -84 2 -84 12 0 4 -7 8 -15 8 -8 0 -29 15 -48
33 -46 47 -71 130 -71 237 0 81 10 206 18 219 2 3 7 23 10 44 6 36 -13 95 -32
98 -50 8 -63 6 -85 -17 -14 -14 -28 -39 -31 -57 -3 -18 -8 -43 -11 -57 -17
-87 -24 -291 -11 -350 3 -14 7 -36 10 -50 13 -59 69 -151 117 -192 27 -24 51
-42 54 -40 3 1 19 -5 35 -13 26 -14 52 -19 130 -28 40 -4 135 16 185 39 184
88 257 337 199 688 -12 75 -71 115 -117 81z"/>
<path d="M3204 2677 c-36 -15 -47 -48 -61 -182 -4 -33 -7 -71 -7 -85 0 -14 -5
-28 -11 -32 -6 -5 -6 -8 0 -8 6 0 10 -18 9 -40 0 -22 2 -40 6 -40 3 0 5 -12 4
-27 -2 -37 21 -126 51 -190 40 -89 136 -173 212 -188 10 -2 18 -4 18 -6 0 -4
54 -10 102 -10 152 1 260 67 320 198 24 52 28 67 42 153 13 84 1 270 -24 370
-17 66 -46 94 -92 86 -52 -10 -68 -51 -50 -132 25 -114 29 -271 9 -354 -9 -36
-20 -69 -24 -75 -5 -5 -17 -22 -29 -37 -11 -16 -27 -28 -35 -28 -8 0 -14 -4
-14 -9 0 -11 -71 -24 -123 -22 -184 6 -262 226 -201 567 6 31 -7 67 -30 89
-14 13 -46 14 -72 2z"/>
<path d="M830 2552 c0 -5 7 -9 15 -9 8 0 12 4 9 9 -3 4 -9 8 -15 8 -5 0 -9 -4
-9 -8z"/>
<path d="M4550 2551 c0 -6 4 -13 10 -16 6 -3 7 1 4 9 -7 18 -14 21 -14 7z"/>
<path d="M834 2499 c-3 -6 -2 -15 3 -20 5 -5 9 -1 9 11 0 23 -2 24 -12 9z"/>
<path d="M830 2449 c0 -5 5 -7 10 -4 6 3 10 8 10 11 0 2 -4 4 -10 4 -5 0 -10
-5 -10 -11z"/>
<path d="M810 2371 c0 -6 4 -12 8 -15 5 -3 9 1 9 9 0 8 -4 15 -9 15 -4 0 -8
-4 -8 -9z"/>
<path d="M854 2330 c0 -13 4 -16 10 -10 7 7 7 13 0 20 -6 6 -10 3 -10 -10z"/>
<path d="M4555 2251 c-3 -5 -2 -12 3 -15 5 -3 9 1 9 9 0 17 -3 19 -12 6z"/>
<path d="M810 2211 c0 -6 4 -12 8 -15 5 -3 9 1 9 9 0 8 -4 15 -9 15 -4 0 -8
-4 -8 -9z"/>
<path d="M4539 2203 c-13 -16 -12 -17 4 -4 9 7 17 15 17 17 0 8 -8 3 -21 -13z"/>
<path d="M815 2170 c-3 -5 -1 -10 4 -10 6 0 11 5 11 10 0 6 -2 10 -4 10 -3 0
-8 -4 -11 -10z"/>
<path d="M4545 2130 c10 -11 20 -20 23 -20 3 0 -3 9 -13 20 -10 11 -20 20 -23
20 -3 0 3 -9 13 -20z"/>
<path d="M855 2100 c-4 -6 -10 -8 -14 -6 -8 6 -8 -60 0 -69 3 -3 5 7 4 22 -1
16 5 36 13 46 8 9 12 17 9 17 -3 0 -9 -5 -12 -10z"/>
<path d="M4550 2091 c0 -6 4 -12 8 -15 5 -3 9 1 9 9 0 8 -4 15 -9 15 -4 0 -8
-4 -8 -9z"/>
<path d="M4539 2043 c-13 -16 -12 -17 4 -4 9 7 17 15 17 17 0 8 -8 3 -21 -13z"/>
<path d="M810 1971 c0 -6 4 -12 8 -15 5 -3 9 1 9 9 0 8 -4 15 -9 15 -4 0 -8
-4 -8 -9z"/>
<path d="M850 1946 c0 -2 8 -10 18 -17 15 -13 16 -12 3 4 -13 16 -21 21 -21
13z"/>
<path d="M4550 1911 c0 -6 4 -13 10 -16 6 -3 7 1 4 9 -7 18 -14 21 -14 7z"/>
<path d="M855 1780 c-4 -6 -10 -8 -14 -6 -8 6 -8 -60 0 -69 3 -3 5 7 4 22 -1
16 5 36 13 46 8 9 12 17 9 17 -3 0 -9 -5 -12 -10z"/>
<path d="M2896 1764 c-13 -12 -12 -23 10 -84 42 -122 25 -199 -47 -215 -77
-17 -116 37 -134 183 -6 52 -15 65 -41 60 -13 -2 -22 -16 -28 -43 -40 -185
-87 -236 -176 -190 -50 26 -56 88 -15 188 30 75 31 93 8 102 -23 8 -46 -20
-73 -91 -44 -118 -28 -209 46 -255 76 -47 178 -19 219 62 9 16 17 29 19 29 2
0 16 -20 31 -44 32 -50 66 -69 124 -68 141 2 195 148 119 324 -22 52 -40 64
-62 42z"/>
<path d="M810 1651 c0 -6 4 -12 8 -15 5 -3 9 1 9 9 0 8 -4 15 -9 15 -4 0 -8
-4 -8 -9z"/>
<path d="M850 1626 c0 -2 8 -10 18 -17 15 -13 16 -12 3 4 -13 16 -21 21 -21
13z"/>
<path d="M4555 1611 c-3 -5 -2 -12 3 -15 5 -3 9 1 9 9 0 17 -3 19 -12 6z"/>
<path d="M1695 1528 c1 -29 3 -60 4 -67 1 -11 4 -12 12 -4 13 13 16 93 5 111
-16 26 -24 10 -21 -40z"/>
<path d="M1750 1520 c0 -44 4 -60 14 -60 9 0 13 16 13 60 0 43 -4 60 -14 60
-9 0 -13 -17 -13 -60z"/>
<path d="M1809 1573 c-10 -69 2 -134 20 -105 9 15 1 112 -10 112 -5 0 -10 -3
-10 -7z"/>
<path d="M3549 1563 c-5 -92 -4 -103 10 -101 19 4 22 109 4 115 -7 3 -13 -4
-14 -14z"/>
<path d="M3604 1520 c-1 -44 3 -60 13 -60 9 0 13 17 13 60 0 42 -4 60 -13 60
-9 0 -13 -18 -13 -60z"/>
<path d="M3659 1563 c0 -10 -2 -35 -3 -56 -2 -39 10 -59 24 -38 11 19 5 104
-8 109 -7 2 -12 -5 -13 -15z"/>
<path d="M4539 1563 c-13 -16 -12 -17 4 -4 9 7 17 15 17 17 0 8 -8 3 -21 -13z"/>
<path d="M4533 1495 c0 -8 4 -15 9 -15 4 0 8 4 8 9 0 6 -4 12 -8 15 -5 3 -9
-1 -9 -9z"/>
<path d="M4550 1451 c0 -6 4 -12 8 -15 5 -3 9 1 9 9 0 8 -4 15 -9 15 -4 0 -8
-4 -8 -9z"/>
<path d="M830 1432 c0 -5 7 -9 15 -9 8 0 12 4 9 9 -3 4 -9 8 -15 8 -5 0 -9 -4
-9 -8z"/>
<path d="M4539 1403 c-13 -16 -12 -17 4 -4 9 7 17 15 17 17 0 8 -8 3 -21 -13z"/>
<path d="M835 1380 c-4 -6 -11 -8 -16 -5 -5 4 -9 1 -9 -4 0 -16 16 -13 30 4 7
8 10 15 7 15 -3 0 -9 -5 -12 -10z"/>
<path d="M830 1329 c0 -5 5 -7 10 -4 6 3 10 8 10 11 0 2 -4 4 -10 4 -5 0 -10
-5 -10 -11z"/>
<path d="M846 1291 c-14 -15 -15 -21 -4 -27 7 -4 10 -3 5 1 -4 5 0 17 10 27 9
10 14 18 11 18 -3 0 -13 -9 -22 -19z"/>
<path d="M4550 1271 c0 -6 4 -13 10 -16 6 -3 7 1 4 9 -7 18 -14 21 -14 7z"/>
<path d="M829 1233 c-13 -16 -12 -17 4 -4 9 7 17 15 17 17 0 8 -8 3 -21 -13z"/>
<path d="M834 1165 c0 -19 3 -32 5 -29 8 7 9 54 2 59 -4 2 -7 -12 -7 -30z"/>
<path d="M4496 1177 c3 -10 9 -15 12 -12 3 3 0 11 -7 18 -10 9 -11 8 -5 -6z"/>
<path d="M4536 1137 c3 -10 9 -15 12 -12 3 3 0 11 -7 18 -10 9 -11 8 -5 -6z"/>
<path d="M835 1110 c3 -5 8 -10 11 -10 2 0 4 5 4 10 0 6 -5 10 -11 10 -5 0 -7
-4 -4 -10z"/>
<path d="M4506 1068 c3 -4 9 -8 15 -8 5 0 9 4 9 8 0 5 -7 9 -15 9 -8 0 -12 -4
-9 -9z"/>
<path d="M939 1038 c-6 -21 -5 -38 1 -38 5 0 8 9 7 20 -1 17 -5 26 -8 18z"/>
<path d="M894 1019 c-3 -6 -2 -15 3 -20 5 -5 9 -1 9 11 0 23 -2 24 -12 9z"/>
<path d="M4496 997 c3 -10 9 -15 12 -12 3 3 0 11 -7 18 -10 9 -11 8 -5 -6z"/>
<path d="M917 961 c-10 -14 -10 -14 4 -4 9 7 18 10 21 7 3 -3 8 -1 12 4 9 16
-24 9 -37 -7z"/>
<path d="M4519 943 c-13 -16 -12 -17 4 -4 9 7 17 15 17 17 0 8 -8 3 -21 -13z"/>
<path d="M991 903 c7 -12 15 -20 18 -17 3 2 -3 12 -13 22 -17 16 -18 16 -5 -5z"/>
<path d="M1025 889 c-3 -4 2 -6 10 -5 21 3 28 13 10 13 -9 0 -18 -4 -20 -8z"/>
<path d="M1070 893 c0 -6 8 -17 18 -24 16 -13 16 -13 2 6 -8 11 -16 22 -17 24
-2 2 -3 0 -3 -6z"/>
<path d="M1137 863 c-10 -9 -9 -23 1 -23 5 0 9 7 9 15 0 17 -1 18 -10 8z"/>
<path d="M1350 846 c0 -2 8 -10 18 -17 15 -13 16 -12 3 4 -13 16 -21 21 -21
13z"/>
<path d="M1395 841 c-3 -5 -2 -12 3 -15 5 -3 9 1 9 9 0 17 -3 19 -12 6z"/>
<path d="M1635 841 c-3 -5 -2 -12 3 -15 5 -3 9 1 9 9 0 17 -3 19 -12 6z"/>
<path d="M1875 841 c-3 -5 -2 -12 3 -15 5 -3 9 1 9 9 0 17 -3 19 -12 6z"/>
<path d="M2595 841 c-3 -5 -2 -12 3 -15 5 -3 9 1 9 9 0 17 -3 19 -12 6z"/>
<path d="M2835 841 c-3 -5 -2 -12 3 -15 5 -3 9 1 9 9 0 17 -3 19 -12 6z"/>
<path d="M3075 841 c-3 -5 -2 -12 3 -15 5 -3 9 1 9 9 0 17 -3 19 -12 6z"/>
<path d="M3315 841 c-3 -5 -2 -12 3 -15 5 -3 9 1 9 9 0 17 -3 19 -12 6z"/>
<path d="M3555 841 c-3 -5 -2 -12 3 -15 5 -3 9 1 9 9 0 17 -3 19 -12 6z"/>
<path d="M3795 841 c-3 -5 -2 -12 3 -15 5 -3 9 1 9 9 0 17 -3 19 -12 6z"/>
<path d="M1790 828 c0 -4 4 -8 9 -8 6 0 12 4 15 8 3 5 -1 9 -9 9 -8 0 -15 -4
-15 -9z"/>
<path d="M1830 836 c0 -2 7 -7 16 -10 8 -3 12 -2 9 4 -6 10 -25 14 -25 6z"/>
<path d="M2750 828 c0 -4 4 -8 9 -8 6 0 12 4 15 8 3 5 -1 9 -9 9 -8 0 -15 -4
-15 -9z"/>
<path d="M2790 836 c0 -2 7 -7 16 -10 8 -3 12 -2 9 4 -6 10 -25 14 -25 6z"/>
<path d="M3230 828 c0 -4 4 -8 9 -8 6 0 12 4 15 8 3 5 -1 9 -9 9 -8 0 -15 -4
-15 -9z"/>
<path d="M3270 836 c0 -2 7 -7 16 -10 8 -3 12 -2 9 4 -6 10 -25 14 -25 6z"/>
<path d="M3710 828 c0 -4 4 -8 9 -8 6 0 12 4 15 8 3 5 -1 9 -9 9 -8 0 -15 -4
-15 -9z"/>
<path d="M3750 836 c0 -2 7 -7 16 -10 8 -3 12 -2 9 4 -6 10 -25 14 -25 6z"/>
<path d="M1166 812 c-3 -5 1 -9 9 -9 8 0 12 4 9 9 -3 4 -7 8 -9 8 -2 0 -6 -4
-9 -8z"/>
<path d="M1220 810 c-9 -6 -10 -10 -3 -10 6 0 15 5 18 10 8 12 4 12 -15 0z"/>
<path d="M1250 811 c0 -6 4 -13 10 -16 6 -3 7 1 4 9 -7 18 -14 21 -14 7z"/>
<path d="M1325 810 c-3 -6 1 -7 9 -4 18 7 21 14 7 14 -6 0 -13 -4 -16 -10z"/>
<path d="M1431 803 c7 -12 15 -20 18 -17 3 2 -3 12 -13 22 -17 16 -18 16 -5
-5z"/>
<path d="M1700 810 c-9 -6 -10 -10 -3 -10 6 0 15 5 18 10 8 12 4 12 -15 0z"/>
<path d="M1730 811 c0 -6 4 -13 10 -16 6 -3 7 1 4 9 -7 18 -14 21 -14 7z"/>
<path d="M1910 806 c7 -7 13 -7 20 0 6 6 3 10 -10 10 -13 0 -16 -4 -10 -10z"/>
<path d="M1993 803 c0 -9 4 -10 14 -2 7 6 13 12 13 14 0 1 -6 2 -13 2 -8 0
-14 -6 -14 -14z"/>
<path d="M2080 810 c-9 -6 -10 -10 -3 -10 6 0 15 5 18 10 8 12 4 12 -15 0z"/>
<path d="M2153 803 c0 -9 4 -10 14 -2 7 6 13 12 13 14 0 1 -6 2 -13 2 -8 0
-14 -6 -14 -14z"/>
<path d="M2240 810 c-9 -6 -10 -10 -3 -10 6 0 15 5 18 10 8 12 4 12 -15 0z"/>
<path d="M2313 803 c0 -9 4 -10 14 -2 7 6 13 12 13 14 0 1 -6 2 -13 2 -8 0
-14 -6 -14 -14z"/>
<path d="M2400 810 c-9 -6 -10 -10 -3 -10 6 0 15 5 18 10 8 12 4 12 -15 0z"/>
<path d="M2473 803 c0 -9 4 -10 14 -2 7 6 13 12 13 14 0 1 -6 2 -13 2 -8 0
-14 -6 -14 -14z"/>
<path d="M2660 810 c-9 -6 -10 -10 -3 -10 6 0 15 5 18 10 8 12 4 12 -15 0z"/>
<path d="M2690 811 c0 -6 4 -13 10 -16 6 -3 7 1 4 9 -7 18 -14 21 -14 7z"/>
<path d="M2871 803 c7 -12 15 -20 18 -17 3 2 -3 12 -13 22 -17 16 -18 16 -5
-5z"/>
<path d="M3140 810 c-9 -6 -10 -10 -3 -10 6 0 15 5 18 10 8 12 4 12 -15 0z"/>
<path d="M3170 811 c0 -6 4 -13 10 -16 6 -3 7 1 4 9 -7 18 -14 21 -14 7z"/>
<path d="M3351 803 c7 -12 15 -20 18 -17 3 2 -3 12 -13 22 -17 16 -18 16 -5
-5z"/>
<path d="M3620 810 c-9 -6 -10 -10 -3 -10 6 0 15 5 18 10 8 12 4 12 -15 0z"/>
<path d="M3650 811 c0 -6 4 -13 10 -16 6 -3 7 1 4 9 -7 18 -14 21 -14 7z"/>
<path d="M1834 796 c1 -8 5 -18 8 -22 4 -3 5 1 4 10 -1 8 -5 18 -8 22 -4 3 -5
-1 -4 -10z"/>
<path d="M2554 796 c1 -8 5 -18 8 -22 4 -3 5 1 4 10 -1 8 -5 18 -8 22 -4 3 -5
-1 -4 -10z"/>
<path d="M2794 796 c1 -8 5 -18 8 -22 4 -3 5 1 4 10 -1 8 -5 18 -8 22 -4 3 -5
-1 -4 -10z"/>
<path d="M3274 796 c1 -8 5 -18 8 -22 4 -3 5 1 4 10 -1 8 -5 18 -8 22 -4 3 -5
-1 -4 -10z"/>
<path d="M3754 796 c1 -8 5 -18 8 -22 4 -3 5 1 4 10 -1 8 -5 18 -8 22 -4 3 -5
-1 -4 -10z"/>
<path d="M1510 791 c0 -6 4 -13 10 -16 6 -3 7 1 4 9 -7 18 -14 21 -14 7z"/>
<path d="M1590 791 c0 -6 4 -12 8 -15 5 -3 9 1 9 9 0 8 -4 15 -9 15 -4 0 -8
-4 -8 -9z"/>
<path d="M2950 791 c0 -6 4 -13 10 -16 6 -3 7 1 4 9 -7 18 -14 21 -14 7z"/>
<path d="M3030 791 c0 -6 4 -12 8 -15 5 -3 9 1 9 9 0 8 -4 15 -9 15 -4 0 -8
-4 -8 -9z"/>
<path d="M3430 791 c0 -6 4 -13 10 -16 6 -3 7 1 4 9 -7 18 -14 21 -14 7z"/>
<path d="M3510 791 c0 -6 4 -12 8 -15 5 -3 9 1 9 9 0 8 -4 15 -9 15 -4 0 -8
-4 -8 -9z"/>
<path d="M3874 772 c4 -3 14 -7 22 -8 9 -1 13 0 10 4 -4 3 -14 7 -22 8 -9 1
-13 0 -10 -4z"/>
<path d="M3939 763 c-13 -16 -12 -17 4 -4 16 13 21 21 13 21 -2 0 -10 -8 -17
-17z"/>
<path d="M3935 729 c-3 -4 2 -6 10 -5 21 3 28 13 10 13 -9 0 -18 -4 -20 -8z"/>
<path d="M4095 700 c-4 -6 -11 -8 -16 -5 -5 4 -9 1 -9 -4 0 -16 16 -13 30 4 7
8 10 15 7 15 -3 0 -9 -5 -12 -10z"/>
<path d="M4529 693 c-13 -16 -12 -17 4 -4 16 13 21 21 13 21 -2 0 -10 -8 -17
-17z"/>
<path d="M4016 688 c3 -5 10 -6 15 -3 13 9 11 12 -6 12 -8 0 -12 -4 -9 -9z"/>
<path d="M4100 635 c0 -2 6 -8 13 -14 10 -8 14 -7 14 2 0 8 -6 14 -14 14 -7 0
-13 -1 -13 -2z"/>
<path d="M4215 611 c3 -3 17 -6 31 -7 13 0 22 2 19 5 -3 3 -17 6 -31 7 -13 0
-22 -2 -19 -5z"/>
<path d="M4496 597 c3 -10 9 -15 12 -12 3 3 0 11 -7 18 -10 9 -11 8 -5 -6z"/>
<path d="M4550 571 c0 -6 4 -13 10 -16 6 -3 7 1 4 9 -7 18 -14 21 -14 7z"/>
<path d="M4310 552 c0 -5 7 -9 15 -9 8 0 12 4 9 9 -3 4 -9 8 -15 8 -5 0 -9 -4
-9 -8z"/>
<path d="M4533 525 c0 -8 4 -12 9 -9 4 3 8 9 8 15 0 5 -4 9 -8 9 -5 0 -9 -7
-9 -15z"/>
<path d="M4399 528 c-5 -18 -6 -38 -1 -34 7 8 12 36 6 36 -2 0 -4 -1 -5 -2z"/>
<path d="M4346 510 c5 -8 9 -18 9 -22 0 -3 3 -9 7 -13 3 -4 5 0 4 9 -1 9 -8
22 -16 29 -10 10 -11 9 -4 -3z"/>
<path d="M4514 478 l-19 -23 23 19 c12 11 22 21 22 23 0 8 -8 2 -26 -19z"/>
<path d="M4500 436 c0 -2 8 -10 18 -17 15 -13 16 -12 3 4 -13 16 -21 21 -21
13z"/>
<path d="M4539 403 c-12 -16 -12 -17 2 -6 9 7 20 9 24 5 5 -4 5 -1 1 6 -9 16
-11 15 -27 -5z"/>
<path d="M479 3138 c-6 -20 -6 -39 0 -42 4 -3 7 6 7 20 0 20 -4 32 -7 22z"/>
<path d="M499 3083 c-13 -16 -12 -17 4 -4 9 7 17 15 17 17 0 8 -8 3 -21 -13z"/>
<path d="M466 3050 c5 -8 9 -18 9 -22 0 -3 3 -9 7 -13 3 -4 5 0 4 9 -1 9 -8
22 -16 29 -10 10 -11 9 -4 -3z"/>
<path d="M499 3003 c-13 -16 -12 -17 4 -4 9 7 17 15 17 17 0 8 -8 3 -21 -13z"/>
<path d="M475 2961 c-3 -5 -2 -12 3 -15 5 -3 9 1 9 9 0 17 -3 19 -12 6z"/>
<path d="M513 2895 c0 -8 4 -12 9 -9 5 3 6 10 3 15 -9 13 -12 11 -12 -6z"/>
<path d="M476 2743 c-6 -14 -5 -15 5 -6 7 7 10 15 7 18 -3 3 -9 -2 -12 -12z"/>
<path d="M474 2651 c1 -16 4 -32 7 -35 3 -3 5 8 4 24 -1 16 -4 32 -7 35 -3 3
-5 -8 -4 -24z"/>
<path d="M500 2676 c0 -2 8 -10 18 -17 15 -13 16 -12 3 4 -13 16 -21 21 -21
13z"/>
<path d="M499 2603 c-13 -16 -12 -17 4 -4 9 7 17 15 17 17 0 8 -8 3 -21 -13z"/>
<path d="M466 2570 c5 -8 9 -18 9 -22 0 -3 3 -9 7 -13 3 -4 5 0 4 9 -1 9 -8
22 -16 29 -10 10 -11 9 -4 -3z"/>
<path d="M499 2523 c-13 -16 -12 -17 4 -4 9 7 17 15 17 17 0 8 -8 3 -21 -13z"/>
<path d="M495 2490 c-3 -5 -1 -10 4 -10 6 0 11 5 11 10 0 6 -2 10 -4 10 -3 0
-8 -4 -11 -10z"/>
<path d="M476 2428 c3 -5 10 -6 15 -3 13 9 11 12 -6 12 -8 0 -12 -4 -9 -9z"/>
<path d="M513 2415 c0 -8 4 -12 9 -9 5 3 6 10 3 15 -9 13 -12 11 -12 -6z"/>
<path d="M456 2383 c-6 -14 -5 -15 5 -6 7 7 10 15 7 18 -3 3 -9 -2 -12 -12z"/>
<path d="M479 2303 c-13 -16 -12 -17 4 -4 9 7 17 15 17 17 0 8 -8 3 -21 -13z"/>
<path d="M475 2270 c3 -5 8 -10 11 -10 2 0 4 5 4 10 0 6 -5 10 -11 10 -5 0 -7
-4 -4 -10z"/>
<path d="M479 2188 c-5 -18 -6 -38 -1 -34 7 8 12 36 6 36 -2 0 -4 -1 -5 -2z"/>
<path d="M483 2068 c-11 -19 -13 -39 -1 -32 5 3 7 9 4 12 -3 3 -1 11 5 19 6 7
9 13 6 13 -3 0 -9 -6 -14 -12z"/>
<path d="M519 2078 c-5 -18 -6 -38 -1 -34 7 8 12 36 6 36 -2 0 -4 -1 -5 -2z"/>
<path d="M4896 3088 c3 -5 10 -6 15 -3 13 9 11 12 -6 12 -8 0 -12 -4 -9 -9z"/>
<path d="M4896 3057 c3 -10 9 -15 12 -12 3 3 0 11 -7 18 -10 9 -11 8 -5 -6z"/>
<path d="M4897 3023 c-10 -9 -9 -23 1 -23 5 0 9 7 9 15 0 17 -1 18 -10 8z"/>
<path d="M4867 2949 c7 -7 15 -10 18 -7 3 3 -2 9 -12 12 -14 6 -15 5 -6 -5z"/>
<path d="M4875 2919 c-4 -6 -5 -12 -2 -15 2 -3 7 2 10 11 7 17 1 20 -8 4z"/>
<path d="M4896 2848 c3 -5 10 -6 15 -3 13 9 11 12 -6 12 -8 0 -12 -4 -9 -9z"/>
<path d="M4860 2816 c0 -2 8 -10 18 -17 15 -13 16 -12 3 4 -13 16 -21 21 -21
13z"/>
<path d="M4896 2768 c3 -5 10 -6 15 -3 13 9 11 12 -6 12 -8 0 -12 -4 -9 -9z"/>
<path d="M4896 2737 c3 -10 9 -15 12 -12 3 3 0 11 -7 18 -10 9 -11 8 -5 -6z"/>
<path d="M4844 2732 c4 -3 14 -7 22 -8 9 -1 13 0 10 4 -4 3 -14 7 -22 8 -9 1
-13 0 -10 -4z"/>
<path d="M4897 2703 c-10 -9 -9 -23 1 -23 5 0 9 7 9 15 0 17 -1 18 -10 8z"/>
<path d="M4867 2629 c7 -7 15 -10 18 -7 3 3 -2 9 -12 12 -14 6 -15 5 -6 -5z"/>
<path d="M4875 2599 c-4 -6 -5 -12 -2 -15 2 -3 7 2 10 11 7 17 1 20 -8 4z"/>
<path d="M4896 2528 c3 -5 10 -6 15 -3 13 9 11 12 -6 12 -8 0 -12 -4 -9 -9z"/>
<path d="M4860 2496 c0 -2 8 -10 18 -17 15 -13 16 -12 3 4 -13 16 -21 21 -21
13z"/>
<path d="M4896 2448 c3 -5 10 -6 15 -3 13 9 11 12 -6 12 -8 0 -12 -4 -9 -9z"/>
<path d="M4896 2417 c3 -10 9 -15 12 -12 3 3 0 11 -7 18 -10 9 -11 8 -5 -6z"/>
<path d="M4844 2412 c4 -3 14 -7 22 -8 9 -1 13 0 10 4 -4 3 -14 7 -22 8 -9 1
-13 0 -10 -4z"/>
<path d="M4897 2383 c-10 -9 -9 -23 1 -23 5 0 9 7 9 15 0 17 -1 18 -10 8z"/>
<path d="M4867 2309 c7 -7 15 -10 18 -7 3 3 -2 9 -12 12 -14 6 -15 5 -6 -5z"/>
<path d="M4875 2279 c-4 -6 -5 -12 -2 -15 2 -3 7 2 10 11 7 17 1 20 -8 4z"/>
<path d="M4896 2208 c3 -5 10 -6 15 -3 13 9 11 12 -6 12 -8 0 -12 -4 -9 -9z"/>
<path d="M4860 2176 c0 -2 8 -10 18 -17 15 -13 16 -12 3 4 -13 16 -21 21 -21
13z"/>
<path d="M4896 2128 c3 -5 10 -6 15 -3 13 9 11 12 -6 12 -8 0 -12 -4 -9 -9z"/>
<path d="M4896 2097 c3 -10 9 -15 12 -12 3 3 0 11 -7 18 -10 9 -11 8 -5 -6z"/>
<path d="M4844 2092 c4 -3 14 -7 22 -8 9 -1 13 0 10 4 -4 3 -14 7 -22 8 -9 1
-13 0 -10 -4z"/>
<path d="M4897 2063 c-10 -9 -9 -23 1 -23 5 0 9 7 9 15 0 17 -1 18 -10 8z"/>
<path d="M4865 2010 c-3 -6 1 -7 9 -4 18 7 21 14 7 14 -6 0 -13 -4 -16 -10z"/>
<path d="M1300 4390 c-9 -6 -10 -10 -3 -10 6 0 15 5 18 10 8 12 4 12 -15 0z"/>
<path d="M3353 4385 c0 -8 4 -12 9 -9 5 3 6 10 3 15 -9 13 -12 11 -12 -6z"/>
<path d="M2853 4375 c0 -8 4 -15 9 -15 4 0 8 4 8 9 0 6 -4 12 -8 15 -5 3 -9
-1 -9 -9z"/>
<path d="M3253 4375 c0 -8 4 -15 9 -15 4 0 8 4 8 9 0 6 -4 12 -8 15 -5 3 -9
-1 -9 -9z"/>
<path d="M3325 4370 c10 -11 20 -20 23 -20 3 0 -3 9 -13 20 -10 11 -20 20 -23
20 -3 0 3 -9 13 -20z"/>
<path d="M1159 4378 c-5 -18 -6 -38 -1 -34 7 8 12 36 6 36 -2 0 -4 -1 -5 -2z"/>
<path d="M1190 4376 c0 -2 7 -7 16 -10 8 -3 12 -2 9 4 -6 10 -25 14 -25 6z"/>
<path d="M1230 4370 c0 -4 7 -7 15 -6 23 3 26 12 5 13 -11 1 -20 -2 -20 -7z"/>
<path d="M1433 4365 c0 -8 4 -12 9 -9 5 3 6 10 3 15 -9 13 -12 11 -12 -6z"/>
<path d="M1486 4372 c-3 -5 1 -9 9 -9 8 0 12 4 9 9 -3 4 -7 8 -9 8 -2 0 -6 -4
-9 -8z"/>
<path d="M1733 4365 c0 -8 4 -12 9 -9 4 3 8 9 8 15 0 5 -4 9 -8 9 -5 0 -9 -7
-9 -15z"/>
<path d="M1893 4365 c0 -8 4 -12 9 -9 4 3 8 9 8 15 0 5 -4 9 -8 9 -5 0 -9 -7
-9 -15z"/>
<path d="M2206 4372 c-3 -5 1 -9 9 -9 8 0 12 4 9 9 -3 4 -7 8 -9 8 -2 0 -6 -4
-9 -8z"/>
<path d="M2393 4365 c0 -8 4 -12 9 -9 5 3 6 10 3 15 -9 13 -12 11 -12 -6z"/>
<path d="M2446 4372 c-3 -5 1 -9 9 -9 8 0 12 4 9 9 -3 4 -7 8 -9 8 -2 0 -6 -4
-9 -8z"/>
<path d="M2953 4365 c0 -8 4 -12 9 -9 5 3 6 10 3 15 -9 13 -12 11 -12 -6z"/>
<path d="M3006 4372 c-3 -5 1 -9 9 -9 8 0 12 4 9 9 -3 4 -7 8 -9 8 -2 0 -6 -4
-9 -8z"/>
<path d="M3194 4364 c1 -8 4 -15 7 -16 2 -2 3 -1 2 1 -2 2 2 9 7 16 7 8 5 12
-4 12 -8 0 -13 -6 -12 -13z"/>
<path d="M3593 4365 c0 -8 4 -12 9 -9 5 3 6 10 3 15 -9 13 -12 11 -12 -6z"/>
<path d="M3646 4372 c-3 -5 1 -9 9 -9 8 0 12 4 9 9 -3 4 -7 8 -9 8 -2 0 -6 -4
-9 -8z"/>
<path d="M1390 4366 c0 -2 8 -10 18 -17 15 -13 16 -12 3 4 -13 16 -21 21 -21
13z"/>
<path d="M2350 4366 c0 -2 8 -10 18 -17 15 -13 16 -12 3 4 -13 16 -21 21 -21
13z"/>
<path d="M2910 4366 c0 -2 8 -10 18 -17 15 -13 16 -12 3 4 -13 16 -21 21 -21
13z"/>
<path d="M3150 4366 c0 -2 8 -10 18 -17 15 -13 16 -12 3 4 -13 16 -21 21 -21
13z"/>
<path d="M3470 4366 c0 -2 8 -10 18 -17 15 -13 16 -12 3 4 -13 16 -21 21 -21
13z"/>
<path d="M3550 4366 c0 -2 8 -10 18 -17 15 -13 16 -12 3 4 -13 16 -21 21 -21
13z"/>
<path d="M3790 4366 c0 -2 8 -10 18 -17 15 -13 16 -12 3 4 -13 16 -21 21 -21
13z"/>
<path d="M1519 4358 c-7 -23 -4 -35 7 -35 9 0 11 4 4 12 -5 7 -7 15 -3 18 3 4
3 7 0 7 -4 0 -7 -1 -8 -2z"/>
<path d="M1559 4343 c-13 -16 -12 -17 4 -4 16 13 21 21 13 21 -2 0 -10 -8 -17
-17z"/>
<path d="M1595 4350 c-3 -5 -1 -10 4 -10 6 0 11 5 11 10 0 6 -2 10 -4 10 -3 0
-8 -4 -11 -10z"/>
<path d="M1946 4348 c3 -4 9 -8 15 -8 5 0 9 4 9 8 0 5 -7 9 -15 9 -8 0 -12 -4
-9 -9z"/>
<path d="M2039 4343 c-13 -16 -12 -17 4 -4 16 13 21 21 13 21 -2 0 -10 -8 -17
-17z"/>
<path d="M2236 4351 c-3 -5 2 -15 12 -22 15 -12 16 -12 5 2 -7 9 -10 19 -6 22
3 4 4 7 0 7 -3 0 -8 -4 -11 -9z"/>
<path d="M2270 4348 c0 -4 4 -8 9 -8 6 0 12 4 15 8 3 5 -1 9 -9 9 -8 0 -15 -4
-15 -9z"/>
<path d="M2479 4358 c-7 -23 -4 -35 7 -35 9 0 11 4 4 12 -5 7 -7 15 -3 18 3 4
3 7 0 7 -4 0 -7 -1 -8 -2z"/>
<path d="M2519 4343 c-13 -16 -12 -17 4 -4 16 13 21 21 13 21 -2 0 -10 -8 -17
-17z"/>
<path d="M2787 4349 c7 -7 15 -10 18 -7 3 3 -2 9 -12 12 -14 6 -15 5 -6 -5z"/>
<path d="M3036 4351 c-3 -5 2 -15 12 -22 15 -12 16 -12 5 2 -7 9 -10 19 -6 22
3 4 4 7 0 7 -3 0 -8 -4 -11 -9z"/>
<path d="M3070 4348 c0 -4 4 -8 9 -8 6 0 12 4 15 8 3 5 -1 9 -9 9 -8 0 -15 -4
-15 -9z"/>
<path d="M3390 4348 c0 -4 4 -8 9 -8 6 0 12 4 15 8 3 5 -1 9 -9 9 -8 0 -15 -4
-15 -9z"/>
<path d="M3676 4351 c-3 -5 2 -15 12 -22 15 -12 16 -12 5 2 -7 9 -10 19 -6 22
3 4 4 7 0 7 -3 0 -8 -4 -11 -9z"/>
<path d="M3710 4348 c0 -4 4 -8 9 -8 6 0 12 4 15 8 3 5 -1 9 -9 9 -8 0 -15 -4
-15 -9z"/>
<path d="M3866 4348 c3 -4 9 -8 15 -8 5 0 9 4 9 8 0 5 -7 9 -15 9 -8 0 -12 -4
-9 -9z"/>
<path d="M3959 4343 c-13 -16 -12 -17 4 -4 16 13 21 21 13 21 -2 0 -10 -8 -17
-17z"/>
<path d="M4109 4347 c6 -8 7 -18 3 -22 -4 -5 -1 -5 6 -1 10 6 10 11 1 22 -6 8
-14 14 -16 14 -3 0 0 -6 6 -13z"/>
<path d="M1255 4340 c-4 -6 -12 -7 -18 -4 -7 4 -8 3 -4 -1 13 -15 34 -14 34 1
0 17 -4 18 -12 4z"/>
<path d="M1695 4339 c-4 -6 -5 -12 -2 -15 2 -3 7 2 10 11 7 17 1 20 -8 4z"/>
<path d="M1855 4339 c-4 -6 -5 -12 -2 -15 2 -3 7 2 10 11 7 17 1 20 -8 4z"/>
<path d="M997 4325 c-4 -8 -3 -16 1 -19 4 -3 9 4 9 15 2 23 -3 25 -10 4z"/>
<path d="M1050 4331 c0 -6 4 -13 10 -16 6 -3 7 1 4 9 -7 18 -14 21 -14 7z"/>
<path d="M1990 4332 c0 -5 7 -9 15 -9 8 0 12 4 9 9 -3 4 -9 8 -15 8 -5 0 -9
-4 -9 -8z"/>
<path d="M2170 4336 c0 -2 7 -7 16 -10 8 -3 12 -2 9 4 -6 10 -25 14 -25 6z"/>
<path d="M2970 4336 c0 -2 7 -7 16 -10 8 -3 12 -2 9 4 -6 10 -25 14 -25 6z"/>
<path d="M3610 4336 c0 -2 7 -7 16 -10 8 -3 12 -2 9 4 -6 10 -25 14 -25 6z"/>
<path d="M3910 4332 c0 -5 7 -9 15 -9 8 0 12 4 9 9 -3 4 -9 8 -15 8 -5 0 -9
-4 -9 -8z"/>
<path d="M4195 4331 c-3 -5 -2 -12 3 -15 5 -3 9 1 9 9 0 17 -3 19 -12 6z"/>
<path d="M4285 4329 c-3 -4 2 -6 10 -5 21 3 28 13 10 13 -9 0 -18 -4 -20 -8z"/>
<path d="M4260 4316 c0 -2 8 -10 18 -17 15 -13 16 -12 3 4 -13 16 -21 21 -21
13z"/>
<path d="M940 4295 c0 -2 6 -8 13 -14 10 -8 14 -7 14 2 0 8 -6 14 -14 14 -7 0
-13 -1 -13 -2z"/>
<path d="M4346 4288 c3 -5 10 -6 15 -3 13 9 11 12 -6 12 -8 0 -12 -4 -9 -9z"/>
<path d="M989 4273 c-13 -16 -12 -17 4 -4 9 7 17 15 17 17 0 8 -8 3 -21 -13z"/>
<path d="M4542 4214 c10 -10 20 -16 22 -13 3 3 -5 11 -17 18 -21 13 -21 12 -5
-5z"/>
<path d="M740 4170 c-9 -6 -10 -10 -3 -10 6 0 15 5 18 10 8 12 4 12 -15 0z"/>
<path d="M4570 4176 c0 -2 7 -7 16 -10 8 -3 12 -2 9 4 -6 10 -25 14 -25 6z"/>
<path d="M4655 4150 c-3 -5 -1 -10 4 -10 6 0 11 5 11 10 0 6 -2 10 -4 10 -3 0
-8 -4 -11 -10z"/>
<path d="M4634 4116 c1 -8 5 -18 8 -22 4 -3 5 1 4 10 -1 8 -5 18 -8 22 -4 3
-5 -1 -4 -10z"/>
<path d="M4679 4103 c-13 -16 -12 -17 4 -4 16 13 21 21 13 21 -2 0 -10 -8 -17
-17z"/>
<path d="M674 4096 c1 -8 5 -18 8 -22 4 -3 5 1 4 10 -1 8 -5 18 -8 22 -4 3 -5
-1 -4 -10z"/>
<path d="M709 4073 c-13 -16 -12 -17 4 -4 9 7 17 15 17 17 0 8 -8 3 -21 -13z"/>
<path d="M626 4050 c6 -8 10 -23 8 -33 -1 -11 0 -16 4 -13 12 13 10 36 -6 48
-15 11 -15 11 -6 -2z"/>
<path d="M4676 4048 c3 -5 10 -6 15 -3 13 9 11 12 -6 12 -8 0 -12 -4 -9 -9z"/>
<path d="M4710 4050 c0 -5 5 -10 11 -10 5 0 7 5 4 10 -3 6 -8 10 -11 10 -2 0
-4 -4 -4 -10z"/>
<path d="M586 3992 c-3 -5 1 -9 9 -9 8 0 15 4 15 9 0 4 -4 8 -9 8 -6 0 -12 -4
-15 -8z"/>
<path d="M4770 3990 c0 -5 5 -10 11 -10 5 0 7 5 4 10 -3 6 -8 10 -11 10 -2 0
-4 -4 -4 -10z"/>
<path d="M560 3945 c-11 -13 -11 -18 0 -28 10 -9 11 -9 6 1 -4 7 -2 19 4 27 7
8 10 15 7 15 -2 0 -10 -7 -17 -15z"/>
<path d="M594 3942 c4 -7 2 -21 -5 -30 -12 -15 -11 -15 6 0 16 15 17 20 6 30
-11 11 -13 10 -7 0z"/>
<path d="M4740 3935 c0 -2 6 -8 13 -14 10 -8 14 -7 14 2 0 8 -6 14 -14 14 -7
0 -13 -1 -13 -2z"/>
<path d="M4786 3911 c-3 -4 6 -7 19 -7 14 0 22 2 19 5 -8 8 -34 10 -38 2z"/>
<path d="M519 3823 c-13 -16 -12 -17 4 -4 9 7 17 15 17 17 0 8 -8 3 -21 -13z"/>
<path d="M4830 3809 c0 -5 5 -7 10 -4 6 3 10 8 10 11 0 2 -4 4 -10 4 -5 0 -10
-5 -10 -11z"/>
<path d="M4810 3776 c0 -2 7 -7 16 -10 8 -3 12 -2 9 4 -6 10 -25 14 -25 6z"/>
<path d="M475 3731 c-3 -5 -2 -12 3 -15 5 -3 9 1 9 9 0 17 -3 19 -12 6z"/>
<path d="M509 3713 c-13 -16 -12 -17 4 -4 9 7 17 15 17 17 0 8 -8 3 -21 -13z"/>
<path d="M480 3656 c0 -2 8 -10 18 -17 15 -13 16 -12 3 4 -13 16 -21 21 -21
13z"/>
<path d="M466 3609 c2 -4 13 -7 24 -6 23 2 17 10 -10 12 -10 1 -17 -2 -14 -6z"/>
<path d="M4880 3590 c-9 -6 -10 -10 -3 -10 6 0 15 5 18 10 8 12 4 12 -15 0z"/>
<path d="M4876 3557 c3 -10 9 -15 12 -12 3 3 0 11 -7 18 -10 9 -11 8 -5 -6z"/>
<path d="M476 3508 c3 -5 10 -6 15 -3 13 9 11 12 -6 12 -8 0 -12 -4 -9 -9z"/>
<path d="M4896 3488 c3 -5 10 -6 15 -3 13 9 11 12 -6 12 -8 0 -12 -4 -9 -9z"/>
<path d="M455 3461 c-3 -5 -2 -12 3 -15 5 -3 9 1 9 9 0 17 -3 19 -12 6z"/>
<path d="M4860 3456 c0 -2 8 -10 18 -17 15 -13 16 -12 3 4 -13 16 -21 21 -21
13z"/>
<path d="M4896 3408 c3 -5 10 -6 15 -3 13 9 11 12 -6 12 -8 0 -12 -4 -9 -9z"/>
<path d="M476 3388 c3 -5 10 -6 15 -3 13 9 11 12 -6 12 -8 0 -12 -4 -9 -9z"/>
<path d="M513 3375 c0 -8 4 -12 9 -9 5 3 6 10 3 15 -9 13 -12 11 -12 -6z"/>
<path d="M4890 3386 c0 -2 8 -10 18 -17 15 -13 16 -12 3 4 -13 16 -21 21 -21
13z"/>
<path d="M4856 3363 c-6 -14 -5 -15 5 -6 7 7 10 15 7 18 -3 3 -9 -2 -12 -12z"/>
<path d="M4896 1777 c3 -10 9 -15 12 -12 3 3 0 11 -7 18 -10 9 -11 8 -5 -6z"/>
<path d="M4856 1772 c-3 -5 1 -9 9 -9 8 0 12 4 9 9 -3 4 -7 8 -9 8 -2 0 -6 -4
-9 -8z"/>
<path d="M479 1743 c-13 -16 -12 -17 4 -4 9 7 17 15 17 17 0 8 -8 3 -21 -13z"/>
<path d="M4897 1743 c-10 -9 -9 -23 1 -23 5 0 9 7 9 15 0 17 -1 18 -10 8z"/>
<path d="M475 1710 c3 -5 8 -10 11 -10 2 0 4 5 4 10 0 6 -5 10 -11 10 -5 0 -7
-4 -4 -10z"/>
<path d="M4867 1669 c7 -7 15 -10 18 -7 3 3 -2 9 -12 12 -14 6 -15 5 -6 -5z"/>
<path d="M509 1633 c-13 -16 -12 -17 4 -4 9 7 17 15 17 17 0 8 -8 3 -21 -13z"/>
<path d="M4875 1639 c-4 -6 -5 -12 -2 -15 2 -3 7 2 10 11 7 17 1 20 -8 4z"/>
<path d="M476 1588 c3 -5 10 -6 15 -3 13 9 11 12 -6 12 -8 0 -12 -4 -9 -9z"/>
<path d="M4896 1568 c3 -5 10 -6 15 -3 13 9 11 12 -6 12 -8 0 -12 -4 -9 -9z"/>
<path d="M455 1541 c-3 -5 -2 -12 3 -15 5 -3 9 1 9 9 0 17 -3 19 -12 6z"/>
<path d="M4860 1536 c0 -2 8 -10 18 -17 15 -13 16 -12 3 4 -13 16 -21 21 -21
13z"/>
<path d="M4896 1488 c3 -5 10 -6 15 -3 13 9 11 12 -6 12 -8 0 -12 -4 -9 -9z"/>
<path d="M476 1468 c3 -5 10 -6 15 -3 13 9 11 12 -6 12 -8 0 -12 -4 -9 -9z"/>
<path d="M513 1455 c0 -8 4 -12 9 -9 5 3 6 10 3 15 -9 13 -12 11 -12 -6z"/>
<path d="M4896 1457 c3 -10 9 -15 12 -12 3 3 0 11 -7 18 -10 9 -11 8 -5 -6z"/>
<path d="M4844 1452 c4 -3 14 -7 22 -8 9 -1 13 0 10 4 -4 3 -14 7 -22 8 -9 1
-13 0 -10 -4z"/>
<path d="M456 1423 c-6 -14 -5 -15 5 -6 7 7 10 15 7 18 -3 3 -9 -2 -12 -12z"/>
<path d="M4897 1423 c-10 -9 -9 -23 1 -23 5 0 9 7 9 15 0 17 -1 18 -10 8z"/>
<path d="M479 1343 c-13 -16 -12 -17 4 -4 9 7 17 15 17 17 0 8 -8 3 -21 -13z"/>
<path d="M4867 1349 c7 -7 15 -10 18 -7 3 3 -2 9 -12 12 -14 6 -15 5 -6 -5z"/>
<path d="M4875 1319 c-4 -6 -5 -12 -2 -15 2 -3 7 2 10 11 7 17 1 20 -8 4z"/>
<path d="M475 1310 c3 -5 8 -10 11 -10 2 0 4 5 4 10 0 6 -5 10 -11 10 -5 0 -7
-4 -4 -10z"/>
<path d="M4860 1216 c0 -2 8 -10 18 -17 15 -13 16 -12 3 4 -13 16 -21 21 -21
13z"/>
<path d="M4896 1137 c3 -10 9 -15 12 -12 3 3 0 11 -7 18 -10 9 -11 8 -5 -6z"/>
<path d="M494 1132 c4 -3 14 -7 22 -8 9 -1 13 0 10 4 -4 3 -14 7 -22 8 -9 1
-13 0 -10 -4z"/>
<path d="M4844 1132 c4 -3 14 -7 22 -8 9 -1 13 0 10 4 -4 3 -14 7 -22 8 -9 1
-13 0 -10 -4z"/>
<path d="M490 1106 c0 -2 8 -10 18 -17 15 -13 16 -12 3 4 -13 16 -21 21 -21
13z"/>
<path d="M4870 1026 c7 -7 13 -7 20 0 6 6 3 10 -10 10 -13 0 -16 -4 -10 -10z"/>
<path d="M495 1011 c3 -3 17 -6 31 -7 13 0 22 2 19 5 -3 3 -17 6 -31 7 -13 0
-22 -2 -19 -5z"/>
<path d="M556 943 c-6 -14 -5 -15 5 -6 7 7 10 15 7 18 -3 3 -9 -2 -12 -12z"/>
<path d="M546 912 c-2 -4 4 -8 14 -8 10 0 16 4 14 8 -3 4 -9 8 -14 8 -5 0 -11
-4 -14 -8z"/>
<path d="M4860 896 c0 -2 8 -10 18 -17 15 -13 16 -12 3 4 -13 16 -21 21 -21
13z"/>
<path d="M580 876 c0 -2 8 -10 18 -17 15 -13 16 -12 3 4 -13 16 -21 21 -21 13z"/>
<path d="M639 825 c-1 -3 -2 -11 -3 -17 -1 -7 -8 -12 -15 -10 -7 1 -9 -2 -6
-9 9 -13 28 3 31 26 2 13 -4 22 -7 10z"/>
<path d="M4896 817 c3 -10 9 -15 12 -12 3 3 0 11 -7 18 -10 9 -11 8 -5 -6z"/>
<path d="M4844 812 c4 -3 14 -7 22 -8 9 -1 13 0 10 4 -4 3 -14 7 -22 8 -9 1
-13 0 -10 -4z"/>
<path d="M655 731 c-3 -5 -2 -12 3 -15 5 -3 9 1 9 9 0 17 -3 19 -12 6z"/>
<path d="M4870 706 c7 -7 13 -7 20 0 6 6 3 10 -10 10 -13 0 -16 -4 -10 -10z"/>
<path d="M736 692 c-3 -5 1 -9 9 -9 8 0 12 4 9 9 -3 4 -7 8 -9 8 -2 0 -6 -4
-9 -8z"/>
<path d="M773 645 c0 -8 4 -12 9 -9 4 3 8 9 8 15 0 5 -4 9 -8 9 -5 0 -9 -7 -9
-15z"/>
<path d="M815 590 c3 -5 8 -10 11 -10 2 0 4 5 4 10 0 6 -5 10 -11 10 -5 0 -7
-4 -4 -10z"/>
<path d="M879 588 c-5 -18 -6 -38 -1 -34 7 8 12 36 6 36 -2 0 -4 -1 -5 -2z"/>
<path d="M4860 576 c0 -2 8 -10 18 -17 15 -13 16 -12 3 4 -13 16 -21 21 -21
13z"/>
<path d="M944 528 l-19 -23 23 19 c21 18 27 26 19 26 -2 0 -12 -10 -23 -22z"/>
<path d="M4896 528 c3 -5 10 -6 15 -3 13 9 11 12 -6 12 -8 0 -12 -4 -9 -9z"/>
<path d="M1107 509 c7 -7 15 -10 18 -7 3 3 -2 9 -12 12 -14 6 -15 5 -6 -5z"/>
<path d="M1075 500 c-4 -6 -12 -7 -18 -4 -7 4 -8 3 -4 -1 13 -15 34 -14 34 1
0 17 -4 18 -12 4z"/>
<path d="M4896 497 c3 -10 9 -15 12 -12 3 3 0 11 -7 18 -10 9 -11 8 -5 -6z"/>
<path d="M996 491 c-3 -4 6 -7 19 -7 14 0 22 2 19 5 -8 8 -34 10 -38 2z"/>
<path d="M1235 492 c3 -3 -1 -12 -7 -21 -8 -10 -4 -9 10 3 26 23 26 23 7 23
-8 0 -13 -3 -10 -5z"/>
<path d="M1496 483 c-6 -14 -5 -15 5 -6 7 7 10 15 7 18 -3 3 -9 -2 -12 -12z"/>
<path d="M1666 488 c3 -5 10 -6 15 -3 13 9 11 12 -6 12 -8 0 -12 -4 -9 -9z"/>
<path d="M1826 488 c3 -4 9 -8 15 -8 5 0 9 4 9 8 0 5 -7 9 -15 9 -8 0 -12 -4
-9 -9z"/>
<path d="M1976 483 c-6 -14 -5 -15 5 -6 7 7 10 15 7 18 -3 3 -9 -2 -12 -12z"/>
<path d="M2456 483 c-6 -14 -5 -15 5 -6 7 7 10 15 7 18 -3 3 -9 -2 -12 -12z"/>
<path d="M2626 488 c3 -5 10 -6 15 -3 13 9 11 12 -6 12 -8 0 -12 -4 -9 -9z"/>
<path d="M2786 488 c3 -4 9 -8 15 -8 5 0 9 4 9 8 0 5 -7 9 -15 9 -8 0 -12 -4
-9 -9z"/>
<path d="M2936 483 c-6 -14 -5 -15 5 -6 7 7 10 15 7 18 -3 3 -9 -2 -12 -12z"/>
<path d="M3416 483 c-6 -14 -5 -15 5 -6 7 7 10 15 7 18 -3 3 -9 -2 -12 -12z"/>
<path d="M3586 488 c3 -5 10 -6 15 -3 13 9 11 12 -6 12 -8 0 -12 -4 -9 -9z"/>
<path d="M4844 492 c4 -3 14 -7 22 -8 9 -1 13 0 10 4 -4 3 -14 7 -22 8 -9 1
-13 0 -10 -4z"/>
<path d="M1629 473 c-13 -16 -12 -17 4 -4 16 13 21 21 13 21 -2 0 -10 -8 -17
-17z"/>
<path d="M1789 473 c-13 -16 -12 -17 4 -4 16 13 21 21 13 21 -2 0 -10 -8 -17
-17z"/>
<path d="M2589 473 c-13 -16 -12 -17 4 -4 16 13 21 21 13 21 -2 0 -10 -8 -17
-17z"/>
<path d="M2749 473 c-13 -16 -12 -17 4 -4 16 13 21 21 13 21 -2 0 -10 -8 -17
-17z"/>
<path d="M3549 473 c-13 -16 -12 -17 4 -4 16 13 21 21 13 21 -2 0 -10 -8 -17
-17z"/>
<path d="M3709 473 c-13 -16 -12 -17 4 -4 16 13 21 21 13 21 -2 0 -10 -8 -17
-17z"/>
<path d="M1154 458 l-19 -23 23 19 c12 11 22 21 22 23 0 8 -8 2 -26 -19z"/>
<path d="M1590 469 c0 -5 5 -7 10 -4 6 3 10 8 10 11 0 2 -4 4 -10 4 -5 0 -10
-5 -10 -11z"/>
<path d="M1870 472 c0 -5 7 -9 15 -9 8 0 12 4 9 9 -3 4 -9 8 -15 8 -5 0 -9 -4
-9 -8z"/>
<path d="M2070 470 c0 -5 5 -10 11 -10 5 0 7 5 4 10 -3 6 -8 10 -11 10 -2 0
-4 -4 -4 -10z"/>
<path d="M2100 476 c0 -2 8 -10 18 -17 15 -13 16 -12 3 4 -13 16 -21 21 -21
13z"/>
<path d="M2186 472 c-3 -5 1 -9 9 -9 8 0 15 4 15 9 0 4 -4 8 -9 8 -6 0 -12 -4
-15 -8z"/>
<path d="M2550 469 c0 -5 5 -7 10 -4 6 3 10 8 10 11 0 2 -4 4 -10 4 -5 0 -10
-5 -10 -11z"/>
<path d="M2830 472 c0 -5 7 -9 15 -9 8 0 12 4 9 9 -3 4 -9 8 -15 8 -5 0 -9 -4
-9 -8z"/>
<path d="M3030 470 c0 -5 5 -10 11 -10 5 0 7 5 4 10 -3 6 -8 10 -11 10 -2 0
-4 -4 -4 -10z"/>
<path d="M3060 476 c0 -2 8 -10 18 -17 15 -13 16 -12 3 4 -13 16 -21 21 -21
13z"/>
<path d="M3146 472 c-3 -5 1 -9 9 -9 8 0 15 4 15 9 0 4 -4 8 -9 8 -6 0 -12 -4
-15 -8z"/>
<path d="M3510 469 c0 -5 5 -7 10 -4 6 3 10 8 10 11 0 2 -4 4 -10 4 -5 0 -10
-5 -10 -11z"/>
<path d="M1305 450 c10 -11 20 -20 23 -20 3 0 -3 9 -13 20 -10 11 -20 20 -23
20 -3 0 3 -9 13 -20z"/>
<path d="M1457 463 c-10 -9 -9 -23 1 -23 5 0 9 7 9 15 0 17 -1 18 -10 8z"/>
<path d="M1705 450 c10 -11 20 -20 23 -20 3 0 -3 9 -13 20 -10 11 -20 20 -23
20 -3 0 3 -9 13 -20z"/>
<path d="M1937 463 c-10 -9 -9 -23 1 -23 5 0 9 7 9 15 0 17 -1 18 -10 8z"/>
<path d="M2265 450 c10 -11 20 -20 23 -20 3 0 -3 9 -13 20 -10 11 -20 20 -23
20 -3 0 3 -9 13 -20z"/>
<path d="M2417 463 c-10 -9 -9 -23 1 -23 5 0 9 7 9 15 0 17 -1 18 -10 8z"/>
<path d="M2665 450 c10 -11 20 -20 23 -20 3 0 -3 9 -13 20 -10 11 -20 20 -23
20 -3 0 3 -9 13 -20z"/>
<path d="M2897 463 c-10 -9 -9 -23 1 -23 5 0 9 7 9 15 0 17 -1 18 -10 8z"/>
<path d="M3225 450 c10 -11 20 -20 23 -20 3 0 -3 9 -13 20 -10 11 -20 20 -23
20 -3 0 3 -9 13 -20z"/>
<path d="M3377 463 c-10 -9 -9 -23 1 -23 5 0 9 7 9 15 0 17 -1 18 -10 8z"/>
<path d="M3625 450 c10 -11 20 -20 23 -20 3 0 -3 9 -13 20 -10 11 -20 20 -23
20 -3 0 3 -9 13 -20z"/>
<path d="M4897 463 c-10 -9 -9 -23 1 -23 5 0 9 7 9 15 0 17 -1 18 -10 8z"/>
<path d="M1370 451 c0 -6 4 -12 8 -15 5 -3 9 1 9 9 0 8 -4 15 -9 15 -4 0 -8
-4 -8 -9z"/>
<path d="M2330 451 c0 -6 4 -12 8 -15 5 -3 9 1 9 9 0 8 -4 15 -9 15 -4 0 -8
-4 -8 -9z"/>
<path d="M3290 451 c0 -6 4 -12 8 -15 5 -3 9 1 9 9 0 8 -4 15 -9 15 -4 0 -8
-4 -8 -9z"/>
<path d="M1275 441 c-3 -5 -2 -12 3 -15 5 -3 9 1 9 9 0 17 -3 19 -12 6z"/>
<path d="M1675 441 c-3 -5 -2 -12 3 -15 5 -3 9 1 9 9 0 17 -3 19 -12 6z"/>
<path d="M2235 441 c-3 -5 -2 -12 3 -15 5 -3 9 1 9 9 0 17 -3 19 -12 6z"/>
<path d="M2635 441 c-3 -5 -2 -12 3 -15 5 -3 9 1 9 9 0 17 -3 19 -12 6z"/>
<path d="M3195 441 c-3 -5 -2 -12 3 -15 5 -3 9 1 9 9 0 17 -3 19 -12 6z"/>
<path d="M3595 441 c-3 -5 -2 -12 3 -15 5 -3 9 1 9 9 0 17 -3 19 -12 6z"/>
<path d="M3755 441 c-3 -5 -2 -12 3 -15 5 -3 9 1 9 9 0 17 -3 19 -12 6z"/>
<path d="M3794 426 c1 -8 5 -18 8 -22 4 -3 5 1 4 10 -1 8 -5 18 -8 22 -4 3 -5
-1 -4 -10z"/>
<path d="M3826 428 c3 -5 10 -6 15 -3 13 9 11 12 -6 12 -8 0 -12 -4 -9 -9z"/>
<path d="M3899 363 c-13 -16 -12 -17 4 -4 16 13 21 21 13 21 -2 0 -10 -8 -17
-17z"/>
<path d="M3955 361 c-3 -5 -2 -12 3 -15 5 -3 9 1 9 9 0 17 -3 19 -12 6z"/>
<path d="M4866 252 c-3 -5 1 -9 9 -9 8 0 12 4 9 9 -3 4 -7 8 -9 8 -2 0 -6 -4
-9 -8z"/>
<path d="M4209 213 c-13 -16 -12 -17 4 -4 9 7 17 15 17 17 0 8 -8 3 -21 -13z"/>
<path d="M4850 226 c0 -2 8 -10 18 -17 15 -13 16 -12 3 4 -13 16 -21 21 -21
13z"/>
<path d="M4239 218 c-6 -20 -6 -39 0 -42 4 -3 7 6 7 20 0 20 -4 32 -7 22z"/>
<path d="M4829 193 c-13 -16 -12 -17 4 -4 16 13 21 21 13 21 -2 0 -10 -8 -17
-17z"/>
<path d="M4270 188 c0 -4 4 -8 9 -8 6 0 12 4 15 8 3 5 -1 9 -9 9 -8 0 -15 -4
-15 -9z"/>
<path d="M4788 193 c7 -3 16 -2 19 1 4 3 -2 6 -13 5 -11 0 -14 -3 -6 -6z"/>
<path d="M4351 143 c7 -12 15 -20 18 -17 3 2 -3 12 -13 22 -17 16 -18 16 -5
-5z"/>
<path d="M4827 149 c7 -7 15 -10 18 -7 3 3 -2 9 -12 12 -14 6 -15 5 -6 -5z"/>
<path d="M4315 141 c-3 -5 -2 -12 3 -15 5 -3 9 1 9 9 0 17 -3 19 -12 6z"/>
<path d="M4455 91 c-3 -5 -2 -12 3 -15 5 -3 9 1 9 9 0 17 -3 19 -12 6z"/>
<path d="M4756 83 c-6 -14 -5 -15 5 -6 7 7 10 15 7 18 -3 3 -9 -2 -12 -12z"/>
<path d="M4683 68 c-11 -19 -13 -39 -1 -32 5 3 7 9 4 12 -3 3 -1 11 5 19 6 7
9 13 6 13 -3 0 -9 -6 -14 -12z"/>
<path d="M4720 70 c-9 -6 -10 -10 -3 -10 6 0 15 5 18 10 8 12 4 12 -15 0z"/>
<path d="M4436 48 c3 -5 10 -6 15 -3 13 9 11 12 -6 12 -8 0 -12 -4 -9 -9z"/>
<path d="M4493 43 c0 -9 4 -10 14 -2 7 6 13 12 13 14 0 1 -6 2 -13 2 -8 0 -14
-6 -14 -14z"/>
<path d="M4550 50 c0 -5 5 -10 11 -10 5 0 7 5 4 10 -3 6 -8 10 -11 10 -2 0 -4
-4 -4 -10z"/>
</g>
</svg>
